<svg width="448" height="272" viewBox="0 0 448 272" fill="none" xmlns="http://www.w3.org/2000/svg">
<g clip-path="url(#clip0_832_28)">
<mask id="mask0_832_28" style="mask-type:luminance" maskUnits="userSpaceOnUse" x="92" y="11" width="253" height="253">
<path d="M307.971 226.188C357.156 177.003 357.156 97.2572 307.971 48.0717C258.785 -1.11371 179.04 -1.11373 129.855 48.0717C80.6691 97.2572 80.6691 177.003 129.855 226.188C179.04 275.373 258.785 275.373 307.971 226.188Z" fill="white"/>
</mask>
<g mask="url(#mask0_832_28)">
<path d="M94.1875 216.364L91.9094 218.645L100.646 227.37L102.924 225.088L94.1875 216.364Z" fill="#FACD49"/>
<path d="M91.9038 225.108L94.1851 227.386L102.909 218.65L100.628 216.372L91.9038 225.108Z" fill="#FACD49"/>
<path d="M94.218 239.446L91.9399 241.727L100.676 250.451L102.955 248.17L94.218 239.446Z" fill="#FACD49"/>
<path d="M91.9221 248.177L94.2034 250.456L102.928 241.719L100.646 239.441L91.9221 248.177Z" fill="#FACD49"/>
<path d="M94.2293 260.905L91.9512 263.186L100.688 271.911L102.966 269.629L94.2293 260.905Z" fill="#FACD49"/>
<path d="M91.9472 269.672L94.2285 271.95L102.953 263.213L100.672 260.935L91.9472 269.672Z" fill="#FACD49"/>
<path d="M94.1555 148.011L91.8774 150.292L100.614 159.017L102.892 156.736L94.1555 148.011Z" fill="#FACD49"/>
<path d="M91.8554 156.728L94.1367 159.006L102.861 150.27L100.58 147.992L91.8554 156.728Z" fill="#FACD49"/>
<path d="M94.1558 171.081L91.8777 173.362L100.614 182.086L102.892 179.805L94.1558 171.081Z" fill="#FACD49"/>
<path d="M91.8789 179.828L94.1602 182.106L102.885 173.369L100.603 171.091L91.8789 179.828Z" fill="#FACD49"/>
<path d="M94.179 192.545L91.9009 194.826L100.637 203.55L102.916 201.269L94.179 192.545Z" fill="#FACD49"/>
<path d="M91.8908 201.291L94.1721 203.569L102.896 194.833L100.615 192.555L91.8908 201.291Z" fill="#FACD49"/>
<path d="M94.1072 79.615L91.8291 81.8962L100.566 90.6206L102.844 88.3393L94.1072 79.615Z" fill="#FACD49"/>
<path d="M91.8183 88.365L94.0996 90.6431L102.824 81.9065L100.543 79.6284L91.8183 88.365Z" fill="#FACD49"/>
<path d="M94.107 102.727L91.8289 105.008L100.565 113.732L102.844 111.451L94.107 102.727Z" fill="#FACD49"/>
<path d="M91.8484 111.446L94.1296 113.724L102.854 104.988L100.573 102.71L91.8484 111.446Z" fill="#FACD49"/>
<path d="M94.1304 124.191L91.8523 126.472L100.589 135.197L102.867 132.915L94.1304 124.191Z" fill="#FACD49"/>
<path d="M91.8613 132.91L94.1426 135.188L102.867 126.451L100.586 124.173L91.8613 132.91Z" fill="#FACD49"/>
<path d="M94.0457 11.2668L91.7676 13.5481L100.504 22.2725L102.782 19.9912L94.0457 11.2668Z" fill="#FACD49"/>
<path d="M91.7758 19.9963L94.0571 22.2744L102.781 13.5379L100.5 11.2598L91.7758 19.9963Z" fill="#FACD49"/>
<path d="M94.0767 34.3305L91.7986 36.6118L100.535 45.3362L102.813 43.0549L94.0767 34.3305Z" fill="#FACD49"/>
<path d="M91.7939 43.0654L94.0752 45.3435L102.8 36.607L100.518 34.3289L91.7939 43.0654Z" fill="#FACD49"/>
<path d="M94.0821 55.7949L91.804 58.0762L100.541 66.8005L102.819 64.5192L94.0821 55.7949Z" fill="#FACD49"/>
<path d="M91.8071 64.5469L94.0884 66.825L102.813 58.0884L100.531 55.8103L91.8071 64.5469Z" fill="#FACD49"/>
<path d="M118.461 216.363L116.183 218.644L124.92 227.368L127.198 225.087L118.461 216.363Z" fill="#FACD49"/>
<path d="M116.17 225.085L118.451 227.363L127.176 218.627L124.894 216.349L116.17 225.085Z" fill="#FACD49"/>
<path d="M141.421 216.339L139.143 218.62L147.879 227.344L150.157 225.063L141.421 216.339Z" fill="#FACD49"/>
<path d="M139.14 225.066L141.421 227.344L150.145 218.608L147.864 216.33L139.14 225.066Z" fill="#FACD49"/>
<path d="M164.349 216.32L162.071 218.601L170.807 227.326L173.085 225.044L164.349 216.32Z" fill="#FACD49"/>
<path d="M162.096 225.06L164.377 227.338L173.102 218.602L170.821 216.323L162.096 225.06Z" fill="#FACD49"/>
<path d="M187.307 216.325L185.029 218.606L193.765 227.33L196.043 225.049L187.307 216.325Z" fill="#FACD49"/>
<path d="M185.004 225.041L187.285 227.319L196.01 218.583L193.728 216.305L185.004 225.041Z" fill="#FACD49"/>
<path d="M210.236 216.288L207.958 218.569L216.694 227.294L218.972 225.012L210.236 216.288Z" fill="#FACD49"/>
<path d="M207.962 225.035L210.243 227.313L218.967 218.576L216.686 216.298L207.962 225.035Z" fill="#FACD49"/>
<path d="M118.493 239.409L116.215 241.69L124.951 250.414L127.229 248.133L118.493 239.409Z" fill="#FACD49"/>
<path d="M116.188 248.172L118.47 250.45L127.194 241.713L124.913 239.435L116.188 248.172Z" fill="#FACD49"/>
<path d="M141.42 239.407L139.142 241.689L147.879 250.413L150.157 248.132L141.42 239.407Z" fill="#FACD49"/>
<path d="M139.126 248.165L141.408 250.443L150.132 241.707L147.851 239.429L139.126 248.165Z" fill="#FACD49"/>
<path d="M164.379 239.419L162.101 241.701L170.837 250.425L173.115 248.144L164.379 239.419Z" fill="#FACD49"/>
<path d="M162.096 248.146L164.377 250.425L173.102 241.688L170.821 239.41L162.096 248.146Z" fill="#FACD49"/>
<path d="M187.32 239.388L185.042 241.669L193.779 250.394L196.057 248.113L187.32 239.388Z" fill="#FACD49"/>
<path d="M185.022 248.11L187.304 250.388L196.028 241.652L193.747 239.374L185.022 248.11Z" fill="#FACD49"/>
<path d="M210.267 239.387L207.989 241.668L216.726 250.393L219.004 248.112L210.267 239.387Z" fill="#FACD49"/>
<path d="M207.962 248.103L210.243 250.382L218.967 241.645L216.686 239.367L207.962 248.103Z" fill="#FACD49"/>
<path d="M118.498 260.891L116.22 263.172L124.957 271.896L127.235 269.615L118.498 260.891Z" fill="#FACD49"/>
<path d="M116.219 269.636L118.5 271.914L127.224 263.177L124.943 260.899L116.219 269.636Z" fill="#FACD49"/>
<path d="M141.444 260.89L139.166 263.171L147.903 271.896L150.181 269.614L141.444 260.89Z" fill="#FACD49"/>
<path d="M139.14 269.629L141.421 271.907L150.145 263.171L147.864 260.893L139.14 269.629Z" fill="#FACD49"/>
<path d="M164.385 260.884L162.107 263.165L170.843 271.889L173.121 269.608L164.385 260.884Z" fill="#FACD49"/>
<path d="M162.109 269.61L164.39 271.888L173.114 263.152L170.833 260.874L162.109 269.61Z" fill="#FACD49"/>
<path d="M187.331 260.865L185.053 263.146L193.79 271.871L196.068 269.59L187.331 260.865Z" fill="#FACD49"/>
<path d="M185.047 269.604L187.329 271.883L196.053 263.146L193.772 260.868L185.047 269.604Z" fill="#FACD49"/>
<path d="M210.272 260.852L207.994 263.133L216.73 271.857L219.009 269.576L210.272 260.852Z" fill="#FACD49"/>
<path d="M207.974 269.568L210.255 271.846L218.979 263.109L216.698 260.831L207.974 269.568Z" fill="#FACD49"/>
<path d="M118.413 147.991L116.135 150.272L124.872 158.997L127.15 156.715L118.413 147.991Z" fill="#FACD49"/>
<path d="M116.141 156.721L118.422 159L127.146 150.263L124.865 147.985L116.141 156.721Z" fill="#FACD49"/>
<path d="M141.372 147.96L139.094 150.241L147.831 158.965L150.109 156.684L141.372 147.96Z" fill="#FACD49"/>
<path d="M139.084 156.702L141.365 158.98L150.09 150.244L147.809 147.966L139.084 156.702Z" fill="#FACD49"/>
<path d="M164.317 147.959L162.039 150.24L170.776 158.965L173.054 156.683L164.317 147.959Z" fill="#FACD49"/>
<path d="M162.022 156.697L164.304 158.975L173.028 150.238L170.747 147.96L162.022 156.697Z" fill="#FACD49"/>
<path d="M187.246 147.923L184.968 150.204L193.705 158.928L195.983 156.647L187.246 147.923Z" fill="#FACD49"/>
<path d="M184.98 156.672L187.261 158.95L195.985 150.214L193.704 147.936L184.98 156.672Z" fill="#FACD49"/>
<path d="M210.193 147.922L207.915 150.203L216.651 158.927L218.929 156.646L210.193 147.922Z" fill="#FACD49"/>
<path d="M207.919 156.666L210.201 158.944L218.925 150.208L216.644 147.93L207.919 156.666Z" fill="#FACD49"/>
<path d="M118.443 171.072L116.165 173.354L124.902 182.078L127.18 179.797L118.443 171.072Z" fill="#FACD49"/>
<path d="M116.158 179.791L118.439 182.069L127.164 173.332L124.882 171.054L116.158 179.791Z" fill="#FACD49"/>
<path d="M141.384 171.041L139.106 173.323L147.843 182.047L150.121 179.766L141.384 171.041Z" fill="#FACD49"/>
<path d="M139.102 179.771L141.383 182.05L150.107 173.313L147.826 171.035L139.102 179.771Z" fill="#FACD49"/>
<path d="M164.331 171.023L162.052 173.304L170.789 182.029L173.067 179.747L164.331 171.023Z" fill="#FACD49"/>
<path d="M162.041 179.765L164.322 182.043L173.046 173.307L170.765 171.029L162.041 179.765Z" fill="#FACD49"/>
<path d="M187.277 171.022L184.999 173.303L193.735 182.028L196.013 179.746L187.277 171.022Z" fill="#FACD49"/>
<path d="M184.98 179.759L187.261 182.037L195.986 173.301L193.705 171.022L184.98 179.759Z" fill="#FACD49"/>
<path d="M210.205 171.003L207.927 173.285L216.663 182.009L218.941 179.728L210.205 171.003Z" fill="#FACD49"/>
<path d="M207.936 179.752L210.218 182.031L218.942 173.294L216.661 171.016L207.936 179.752Z" fill="#FACD49"/>
<path d="M118.449 192.554L116.17 194.836L124.907 203.56L127.185 201.279L118.449 192.554Z" fill="#FACD49"/>
<path d="M116.17 201.254L118.451 203.532L127.176 194.796L124.894 192.518L116.17 201.254Z" fill="#FACD49"/>
<path d="M141.395 192.519L139.117 194.8L147.853 203.524L150.132 201.243L141.395 192.519Z" fill="#FACD49"/>
<path d="M139.127 201.248L141.408 203.526L150.133 194.79L147.851 192.511L139.127 201.248Z" fill="#FACD49"/>
<path d="M164.353 192.505L162.075 194.786L170.811 203.51L173.089 201.229L164.353 192.505Z" fill="#FACD49"/>
<path d="M162.053 201.229L164.334 203.507L173.058 194.771L170.777 192.493L162.053 201.229Z" fill="#FACD49"/>
<path d="M187.282 192.487L185.004 194.768L193.74 203.492L196.019 201.211L187.282 192.487Z" fill="#FACD49"/>
<path d="M184.992 201.223L187.273 203.501L195.998 194.765L193.717 192.487L184.992 201.223Z" fill="#FACD49"/>
<path d="M210.228 192.468L207.95 194.749L216.686 203.474L218.965 201.192L210.228 192.468Z" fill="#FACD49"/>
<path d="M207.949 201.217L210.23 203.495L218.954 194.758L216.673 192.48L207.949 201.217Z" fill="#FACD49"/>
<path d="M118.382 79.6128L116.104 81.894L124.841 90.6184L127.119 88.3371L118.382 79.6128Z" fill="#FACD49"/>
<path d="M116.103 88.3406L118.384 90.6187L127.109 81.8821L124.827 79.604L116.103 88.3406Z" fill="#FACD49"/>
<path d="M141.311 79.612L139.033 81.8933L147.77 90.6177L150.048 88.3364L141.311 79.612Z" fill="#FACD49"/>
<path d="M139.024 88.3347L141.305 90.6128L150.03 81.8762L147.748 79.5982L139.024 88.3347Z" fill="#FACD49"/>
<path d="M164.258 79.5932L161.979 81.8745L170.716 90.5989L172.994 88.3176L164.258 79.5932Z" fill="#FACD49"/>
<path d="M161.982 88.3281L164.263 90.6062L172.987 81.8697L170.706 79.5916L161.982 88.3281Z" fill="#FACD49"/>
<path d="M187.197 79.5622L184.919 81.8435L193.656 90.5679L195.934 88.2866L187.197 79.5622Z" fill="#FACD49"/>
<path d="M184.907 88.3096L187.188 90.5876L195.912 81.8511L193.631 79.573L184.907 88.3096Z" fill="#FACD49"/>
<path d="M210.157 79.5559L207.878 81.8372L216.615 90.5615L218.893 88.2802L210.157 79.5559Z" fill="#FACD49"/>
<path d="M207.858 88.2903L210.139 90.5684L218.864 81.8318L216.582 79.5537L207.858 88.2903Z" fill="#FACD49"/>
<path d="M118.396 102.694L116.117 104.976L124.854 113.7L127.132 111.419L118.396 102.694Z" fill="#FACD49"/>
<path d="M116.103 111.427L118.384 113.705L127.109 104.969L124.827 102.691L116.103 111.427Z" fill="#FACD49"/>
<path d="M141.341 102.676L139.063 104.957L147.799 113.681L150.077 111.4L141.341 102.676Z" fill="#FACD49"/>
<path d="M139.06 111.421L141.341 113.699L150.065 104.962L147.784 102.684L139.06 111.421Z" fill="#FACD49"/>
<path d="M164.269 102.675L161.991 104.956L170.728 113.68L173.006 111.399L164.269 102.675Z" fill="#FACD49"/>
<path d="M161.98 111.415L164.262 113.693L172.986 104.956L170.705 102.678L161.98 111.415Z" fill="#FACD49"/>
<path d="M187.228 102.626L184.95 104.907L193.687 113.631L195.965 111.35L187.228 102.626Z" fill="#FACD49"/>
<path d="M184.925 111.378L187.206 113.656L195.93 104.919L193.649 102.641L184.925 111.378Z" fill="#FACD49"/>
<path d="M210.157 102.607L207.878 104.889L216.615 113.613L218.893 111.332L210.157 102.607Z" fill="#FACD49"/>
<path d="M207.882 111.372L210.164 113.65L218.888 104.913L216.607 102.635L207.882 111.372Z" fill="#FACD49"/>
<path d="M118.406 124.171L116.127 126.452L124.864 135.177L127.142 132.895L118.406 124.171Z" fill="#FACD49"/>
<path d="M116.128 132.904L118.409 135.182L127.134 126.445L124.852 124.167L116.128 132.904Z" fill="#FACD49"/>
<path d="M141.346 124.14L139.068 126.421L147.805 135.146L150.083 132.864L141.346 124.14Z" fill="#FACD49"/>
<path d="M139.054 132.885L141.335 135.163L150.06 126.427L147.779 124.148L139.054 132.885Z" fill="#FACD49"/>
<path d="M164.293 124.122L162.015 126.403L170.751 135.127L173.03 132.846L164.293 124.122Z" fill="#FACD49"/>
<path d="M161.994 132.879L164.275 135.157L172.999 126.42L170.718 124.142L161.994 132.879Z" fill="#FACD49"/>
<path d="M187.221 124.103L184.943 126.384L193.68 135.109L195.958 132.827L187.221 124.103Z" fill="#FACD49"/>
<path d="M184.968 132.855L187.25 135.133L195.974 126.396L193.693 124.118L184.968 132.855Z" fill="#FACD49"/>
<path d="M210.18 124.089L207.902 126.371L216.638 135.095L218.916 132.814L210.18 124.089Z" fill="#FACD49"/>
<path d="M207.894 132.835L210.176 135.114L218.9 126.377L216.619 124.099L207.894 132.835Z" fill="#FACD49"/>
<path d="M118.321 11.2468L116.043 13.5281L124.78 22.2524L127.058 19.9712L118.321 11.2468Z" fill="#FACD49"/>
<path d="M116.042 19.9905L118.324 22.2686L127.048 13.532L124.767 11.2539L116.042 19.9905Z" fill="#FACD49"/>
<path d="M141.261 11.2158L138.983 13.4971L147.72 22.2214L149.998 19.9401L141.261 11.2158Z" fill="#FACD49"/>
<path d="M138.987 19.9714L141.268 22.2495L149.992 13.513L147.711 11.2349L138.987 19.9714Z" fill="#FACD49"/>
<path d="M164.221 11.2097L161.943 13.491L170.679 22.2153L172.957 19.934L164.221 11.2097Z" fill="#FACD49"/>
<path d="M161.938 19.9524L164.219 22.2305L172.944 13.4939L170.662 11.2158L161.938 19.9524Z" fill="#FACD49"/>
<path d="M187.166 11.209L184.888 13.4902L193.625 22.2146L195.903 19.9333L187.166 11.209Z" fill="#FACD49"/>
<path d="M184.895 19.9284L187.176 22.2065L195.9 13.47L193.619 11.1919L184.895 19.9284Z" fill="#FACD49"/>
<path d="M210.095 11.1902L207.817 13.4714L216.553 22.1958L218.832 19.9145L210.095 11.1902Z" fill="#FACD49"/>
<path d="M207.834 19.9221L210.115 22.2002L218.84 13.4636L216.558 11.1856L207.834 19.9221Z" fill="#FACD49"/>
<path d="M118.334 34.3108L116.056 36.592L124.792 45.3164L127.07 43.0351L118.334 34.3108Z" fill="#FACD49"/>
<path d="M116.061 43.0588L118.342 45.3369L127.066 36.6004L124.785 34.3223L116.061 43.0588Z" fill="#FACD49"/>
<path d="M141.28 34.3098L139.002 36.5911L147.738 45.3154L150.017 43.0341L141.28 34.3098Z" fill="#FACD49"/>
<path d="M139.018 43.053L141.299 45.3311L150.023 36.5945L147.742 34.3164L139.018 43.053Z" fill="#FACD49"/>
<path d="M164.238 34.2788L161.96 36.5601L170.697 45.2844L172.975 43.0031L164.238 34.2788Z" fill="#FACD49"/>
<path d="M161.943 43.0339L164.224 45.312L172.949 36.5755L170.667 34.2974L161.943 43.0339Z" fill="#FACD49"/>
<path d="M187.179 34.2724L184.901 36.5537L193.638 45.2781L195.916 42.9968L187.179 34.2724Z" fill="#FACD49"/>
<path d="M184.895 43.0146L187.176 45.2927L195.9 36.5562L193.619 34.2781L184.895 43.0146Z" fill="#FACD49"/>
<path d="M210.125 34.2717L207.847 36.553L216.584 45.2773L218.862 42.9961L210.125 34.2717Z" fill="#FACD49"/>
<path d="M207.852 43.0088L210.133 45.2869L218.858 36.5503L216.576 34.2722L207.852 43.0088Z" fill="#FACD49"/>
<path d="M118.357 55.7929L116.079 58.0742L124.816 66.7986L127.094 64.5173L118.357 55.7929Z" fill="#FACD49"/>
<path d="M116.073 64.5229L118.354 66.801L127.078 58.0645L124.797 55.7864L116.073 64.5229Z" fill="#FACD49"/>
<path d="M141.303 55.7739L139.025 58.0552L147.761 66.7795L150.04 64.4983L141.303 55.7739Z" fill="#FACD49"/>
<path d="M139.03 64.5166L141.311 66.7947L150.035 58.0581L147.754 55.78L139.03 64.5166Z" fill="#FACD49"/>
<path d="M164.231 55.7553L161.953 58.0366L170.69 66.761L172.968 64.4797L164.231 55.7553Z" fill="#FACD49"/>
<path d="M161.968 64.51L164.25 66.7881L172.974 58.0515L170.693 55.7734L161.968 64.51Z" fill="#FACD49"/>
<path d="M187.189 55.7419L184.911 58.0232L193.648 66.7476L195.926 64.4663L187.189 55.7419Z" fill="#FACD49"/>
<path d="M184.894 64.4909L187.176 66.769L195.9 58.0325L193.619 55.7544L184.894 64.4909Z" fill="#FACD49"/>
<path d="M210.131 55.7358L207.853 58.0171L216.589 66.7414L218.867 64.4602L210.131 55.7358Z" fill="#FACD49"/>
<path d="M207.864 64.4546L210.146 66.7327L218.87 57.9961L216.589 55.718L207.864 64.4546Z" fill="#FACD49"/>
<path d="M230.906 216.279L228.628 218.561L237.364 227.285L239.643 225.004L230.906 216.279Z" fill="#FACD49"/>
<path d="M228.624 225.019L230.905 227.297L239.63 218.56L237.348 216.282L228.624 225.019Z" fill="#FACD49"/>
<path d="M253.852 216.261L251.574 218.542L260.311 227.267L262.589 224.985L253.852 216.261Z" fill="#FACD49"/>
<path d="M251.581 225.012L253.863 227.29L262.587 218.554L260.306 216.276L251.581 225.012Z" fill="#FACD49"/>
<path d="M276.824 216.26L274.546 218.541L283.282 227.266L285.56 224.984L276.824 216.26Z" fill="#FACD49"/>
<path d="M274.52 224.981L276.801 227.259L285.526 218.522L283.244 216.244L274.52 224.981Z" fill="#FACD49"/>
<path d="M299.751 216.241L297.473 218.523L306.21 227.247L308.488 224.966L299.751 216.241Z" fill="#FACD49"/>
<path d="M297.458 224.975L299.74 227.253L308.464 218.516L306.183 216.238L297.458 224.975Z" fill="#FACD49"/>
<path d="M322.698 216.205L320.419 218.486L329.156 227.211L331.434 224.929L322.698 216.205Z" fill="#FACD49"/>
<path d="M320.434 224.968L322.715 227.246L331.439 218.51L329.158 216.231L320.434 224.968Z" fill="#FACD49"/>
<path d="M230.937 239.361L228.658 241.642L237.395 250.367L239.673 248.085L230.937 239.361Z" fill="#FACD49"/>
<path d="M228.642 248.105L230.924 250.383L239.648 241.647L237.367 239.368L228.642 248.105Z" fill="#FACD49"/>
<path d="M253.864 239.342L251.586 241.624L260.322 250.348L262.601 248.067L253.864 239.342Z" fill="#FACD49"/>
<path d="M251.58 248.099L253.862 250.377L262.586 241.64L260.305 239.362L251.58 248.099Z" fill="#FACD49"/>
<path d="M276.823 239.311L274.545 241.593L283.282 250.317L285.56 248.036L276.823 239.311Z" fill="#FACD49"/>
<path d="M274.525 248.062L276.806 250.34L285.531 241.604L283.249 239.325L274.525 248.062Z" fill="#FACD49"/>
<path d="M299.781 239.305L297.503 241.586L306.239 250.311L308.518 248.029L299.781 239.305Z" fill="#FACD49"/>
<path d="M297.494 248.043L299.775 250.321L308.5 241.584L306.218 239.306L297.494 248.043Z" fill="#FACD49"/>
<path d="M322.71 239.304L320.432 241.586L329.168 250.31L331.446 248.029L322.71 239.304Z" fill="#FACD49"/>
<path d="M320.433 248.037L322.714 250.315L331.438 241.579L329.157 239.301L320.433 248.037Z" fill="#FACD49"/>
<path d="M230.941 260.843L228.663 263.125L237.4 271.849L239.678 269.568L230.941 260.843Z" fill="#FACD49"/>
<path d="M228.654 269.569L230.936 271.847L239.66 263.111L237.379 260.833L228.654 269.569Z" fill="#FACD49"/>
<path d="M253.888 260.807L251.61 263.088L260.346 271.812L262.624 269.531L253.888 260.807Z" fill="#FACD49"/>
<path d="M251.594 269.562L253.875 271.841L262.599 263.104L260.318 260.826L251.594 269.562Z" fill="#FACD49"/>
<path d="M276.834 260.77L274.556 263.052L283.292 271.776L285.57 269.495L276.834 260.77Z" fill="#FACD49"/>
<path d="M274.568 269.539L276.85 271.817L285.574 263.08L283.293 260.802L274.568 269.539Z" fill="#FACD49"/>
<path d="M299.774 260.757L297.496 263.039L306.233 271.763L308.511 269.482L299.774 260.757Z" fill="#FACD49"/>
<path d="M297.494 269.52L299.775 271.798L308.5 263.061L306.218 260.783L297.494 269.52Z" fill="#FACD49"/>
<path d="M322.733 260.769L320.455 263.05L329.191 271.775L331.469 269.493L322.733 260.769Z" fill="#FACD49"/>
<path d="M320.428 269.501L322.709 271.779L331.433 263.043L329.152 260.765L320.428 269.501Z" fill="#FACD49"/>
<path d="M230.875 147.883L228.597 150.165L237.333 158.889L239.612 156.608L230.875 147.883Z" fill="#FACD49"/>
<path d="M228.587 156.655L230.868 158.933L239.593 150.197L237.311 147.919L228.587 156.655Z" fill="#FACD49"/>
<path d="M253.816 147.895L251.538 150.176L260.275 158.901L262.553 156.619L253.816 147.895Z" fill="#FACD49"/>
<path d="M251.539 156.619L253.821 158.897L262.545 150.16L260.264 147.882L251.539 156.619Z" fill="#FACD49"/>
<path d="M276.762 147.876L274.484 150.158L283.221 158.882L285.499 156.601L276.762 147.876Z" fill="#FACD49"/>
<path d="M274.459 156.63L276.741 158.908L285.465 150.172L283.184 147.894L274.459 156.63Z" fill="#FACD49"/>
<path d="M299.69 147.858L297.412 150.139L306.148 158.864L308.426 156.582L299.69 147.858Z" fill="#FACD49"/>
<path d="M297.416 156.606L299.697 158.884L308.421 150.147L306.14 147.869L297.416 156.606Z" fill="#FACD49"/>
<path d="M322.649 147.844L320.371 150.125L329.108 158.85L331.386 156.569L322.649 147.844Z" fill="#FACD49"/>
<path d="M320.361 156.587L322.642 158.865L331.366 150.129L329.085 147.851L320.361 156.587Z" fill="#FACD49"/>
<path d="M230.875 170.978L228.597 173.259L237.334 181.983L239.612 179.702L230.875 170.978Z" fill="#FACD49"/>
<path d="M228.6 179.737L230.881 182.015L239.606 173.278L237.324 171L228.6 179.737Z" fill="#FACD49"/>
<path d="M253.833 170.964L251.555 173.245L260.292 181.969L262.57 179.688L253.833 170.964Z" fill="#FACD49"/>
<path d="M251.543 179.718L253.825 181.996L262.549 173.259L260.268 170.981L251.543 179.718Z" fill="#FACD49"/>
<path d="M276.774 170.958L274.496 173.239L283.232 181.964L285.51 179.682L276.774 170.958Z" fill="#FACD49"/>
<path d="M274.495 179.699L276.776 181.977L285.5 173.241L283.219 170.962L274.495 179.699Z" fill="#FACD49"/>
<path d="M299.72 170.939L297.442 173.221L306.179 181.945L308.457 179.664L299.72 170.939Z" fill="#FACD49"/>
<path d="M297.434 179.693L299.715 181.971L308.439 173.234L306.158 170.956L297.434 179.693Z" fill="#FACD49"/>
<path d="M322.662 170.908L320.384 173.189L329.121 181.914L331.399 179.633L322.662 170.908Z" fill="#FACD49"/>
<path d="M320.379 179.656L322.66 181.934L331.384 173.198L329.103 170.919L320.379 179.656Z" fill="#FACD49"/>
<path d="M230.898 192.459L228.62 194.741L237.356 203.465L239.635 201.184L230.898 192.459Z" fill="#FACD49"/>
<path d="M228.594 201.2L230.876 203.479L239.6 194.742L237.319 192.464L228.594 201.2Z" fill="#FACD49"/>
<path d="M253.839 192.428L251.561 194.71L260.298 203.434L262.576 201.153L253.839 192.428Z" fill="#FACD49"/>
<path d="M251.538 201.182L253.819 203.46L262.544 194.723L260.262 192.445L251.538 201.182Z" fill="#FACD49"/>
<path d="M276.798 192.423L274.52 194.704L283.257 203.428L285.535 201.147L276.798 192.423Z" fill="#FACD49"/>
<path d="M274.508 201.163L276.789 203.441L285.513 194.705L283.232 192.427L274.508 201.163Z" fill="#FACD49"/>
<path d="M299.726 192.404L297.448 194.685L306.184 203.409L308.462 201.128L299.726 192.404Z" fill="#FACD49"/>
<path d="M297.446 201.157L299.728 203.435L308.452 194.698L306.171 192.42L297.446 201.157Z" fill="#FACD49"/>
<path d="M322.673 192.385L320.395 194.667L329.131 203.391L331.409 201.11L322.673 192.385Z" fill="#FACD49"/>
<path d="M320.404 201.133L322.685 203.411L331.409 194.674L329.128 192.396L320.404 201.133Z" fill="#FACD49"/>
<path d="M230.827 79.5481L228.549 81.8293L237.285 90.5537L239.563 88.2724L230.827 79.5481Z" fill="#FACD49"/>
<path d="M228.54 88.2746L230.821 90.5527L239.545 81.8162L237.264 79.5381L228.54 88.2746Z" fill="#FACD49"/>
<path d="M253.754 79.5117L251.476 81.793L260.213 90.5173L262.491 88.236L253.754 79.5117Z" fill="#FACD49"/>
<path d="M251.478 88.2685L253.76 90.5466L262.484 81.8101L260.203 79.532L251.478 88.2685Z" fill="#FACD49"/>
<path d="M276.714 79.4983L274.436 81.7795L283.172 90.5039L285.45 88.2226L276.714 79.4983Z" fill="#FACD49"/>
<path d="M274.44 88.2495L276.722 90.5276L285.446 81.791L283.165 79.513L274.44 88.2495Z" fill="#FACD49"/>
<path d="M299.659 79.4797L297.381 81.761L306.118 90.4853L308.396 88.2041L299.659 79.4797Z" fill="#FACD49"/>
<path d="M297.379 88.2432L299.66 90.5212L308.385 81.7847L306.103 79.5066L297.379 88.2432Z" fill="#FACD49"/>
<path d="M322.605 79.479L320.327 81.7603L329.064 90.4846L331.342 88.2033L322.605 79.479Z" fill="#FACD49"/>
<path d="M320.3 88.2373L322.581 90.5154L331.305 81.7788L329.024 79.5007L320.3 88.2373Z" fill="#FACD49"/>
<path d="M230.839 102.612L228.561 104.893L237.298 113.617L239.576 111.336L230.839 102.612Z" fill="#FACD49"/>
<path d="M228.557 111.361L230.839 113.639L239.563 104.903L237.282 102.625L228.557 111.361Z" fill="#FACD49"/>
<path d="M253.785 102.593L251.507 104.875L260.243 113.599L262.521 111.318L253.785 102.593Z" fill="#FACD49"/>
<path d="M251.514 111.337L253.795 113.615L262.52 104.879L260.238 102.601L251.514 111.337Z" fill="#FACD49"/>
<path d="M276.731 102.593L274.453 104.874L283.19 113.598L285.468 111.317L276.731 102.593Z" fill="#FACD49"/>
<path d="M274.435 111.331L276.717 113.609L285.441 104.873L283.16 102.595L274.435 111.331Z" fill="#FACD49"/>
<path d="M299.672 102.561L297.394 104.843L306.131 113.567L308.409 111.286L299.672 102.561Z" fill="#FACD49"/>
<path d="M297.379 111.312L299.66 113.59L308.385 104.854L306.103 102.575L297.379 111.312Z" fill="#FACD49"/>
<path d="M322.618 102.542L320.34 104.824L329.077 113.548L331.355 111.267L322.618 102.542Z" fill="#FACD49"/>
<path d="M320.335 111.305L322.617 113.583L331.341 104.847L329.06 102.569L320.335 111.305Z" fill="#FACD49"/>
<path d="M230.862 124.076L228.584 126.358L237.32 135.082L239.598 132.801L230.862 124.076Z" fill="#FACD49"/>
<path d="M228.588 132.808L230.869 135.086L239.593 126.349L237.312 124.071L228.588 132.808Z" fill="#FACD49"/>
<path d="M253.809 124.075L251.531 126.357L260.267 135.081L262.545 132.8L253.809 124.075Z" fill="#FACD49"/>
<path d="M251.527 132.801L253.808 135.079L262.532 126.343L260.251 124.065L251.527 132.801Z" fill="#FACD49"/>
<path d="M276.736 124.074L274.458 126.356L283.195 135.08L285.473 132.799L276.736 124.074Z" fill="#FACD49"/>
<path d="M274.447 132.813L276.729 135.091L285.453 126.354L283.172 124.076L274.447 132.813Z" fill="#FACD49"/>
<path d="M299.695 124.026L297.417 126.307L306.154 135.031L308.432 132.75L299.695 124.026Z" fill="#FACD49"/>
<path d="M297.392 132.776L299.673 135.054L308.397 126.318L306.116 124.04L297.392 132.776Z" fill="#FACD49"/>
<path d="M322.624 124.025L320.346 126.306L329.082 135.031L331.361 132.749L322.624 124.025Z" fill="#FACD49"/>
<path d="M320.349 132.77L322.63 135.048L331.355 126.311L329.073 124.033L320.349 132.77Z" fill="#FACD49"/>
<path d="M230.783 11.1819L228.505 13.4631L237.242 22.1875L239.52 19.9062L230.783 11.1819Z" fill="#FACD49"/>
<path d="M228.497 19.9236L230.778 22.2017L239.502 13.4651L237.221 11.187L228.497 19.9236Z" fill="#FACD49"/>
<path d="M253.724 11.1508L251.446 13.4321L260.182 22.1565L262.46 19.8752L253.724 11.1508Z" fill="#FACD49"/>
<path d="M251.441 19.8874L253.722 22.1655L262.447 13.429L260.165 11.1509L251.441 19.8874Z" fill="#FACD49"/>
<path d="M276.652 11.1323L274.374 13.4136L283.111 22.1379L285.389 19.8567L276.652 11.1323Z" fill="#FACD49"/>
<path d="M274.38 19.8811L276.661 22.1592L285.385 13.4226L283.104 11.1445L274.38 19.8811Z" fill="#FACD49"/>
<path d="M299.598 11.1138L297.32 13.395L306.057 22.1194L308.335 19.8381L299.598 11.1138Z" fill="#FACD49"/>
<path d="M297.337 19.875L299.618 22.1531L308.343 13.4165L306.061 11.1384L297.337 19.875Z" fill="#FACD49"/>
<path d="M322.57 11.1128L320.292 13.394L329.028 22.1184L331.306 19.8371L322.57 11.1128Z" fill="#FACD49"/>
<path d="M320.294 19.8257L322.575 22.1038L331.299 13.3672L329.018 11.0891L320.294 19.8257Z" fill="#FACD49"/>
<path d="M230.796 34.2458L228.518 36.5271L237.254 45.2515L239.532 42.9702L230.796 34.2458Z" fill="#FACD49"/>
<path d="M228.515 42.9929L230.796 45.271L239.521 36.5344L237.239 34.2563L228.515 42.9929Z" fill="#FACD49"/>
<path d="M253.754 34.2324L251.476 36.5137L260.213 45.238L262.491 42.9568L253.754 34.2324Z" fill="#FACD49"/>
<path d="M251.441 42.9736L253.722 45.2517L262.447 36.5152L260.165 34.2371L251.441 42.9736Z" fill="#FACD49"/>
<path d="M276.665 34.196L274.387 36.4773L283.124 45.2017L285.402 42.9204L276.665 34.196Z" fill="#FACD49"/>
<path d="M274.399 42.9675L276.68 45.2456L285.404 36.5091L283.123 34.231L274.399 42.9675Z" fill="#FACD49"/>
<path d="M299.611 34.1953L297.333 36.4766L306.07 45.2009L308.348 42.9196L299.611 34.1953Z" fill="#FACD49"/>
<path d="M297.355 42.9436L299.636 45.2217L308.361 36.4851L306.08 34.207L297.355 42.9436Z" fill="#FACD49"/>
<path d="M322.556 34.1943L320.278 36.4756L329.015 45.1999L331.293 42.9187L322.556 34.1943Z" fill="#FACD49"/>
<path d="M320.275 42.955L322.557 45.2332L331.281 36.4966L329 34.2185L320.275 42.955Z" fill="#FACD49"/>
<path d="M230.801 55.7099L228.523 57.9912L237.259 66.7156L239.538 64.4343L230.801 55.7099Z" fill="#FACD49"/>
<path d="M228.528 64.4563L230.809 66.7344L239.533 57.9978L237.252 55.7197L228.528 64.4563Z" fill="#FACD49"/>
<path d="M253.747 55.7092L251.469 57.9905L260.206 66.7148L262.484 64.4336L253.747 55.7092Z" fill="#FACD49"/>
<path d="M251.466 64.4502L253.748 66.7283L262.472 57.9917L260.191 55.7136L251.466 64.4502Z" fill="#FACD49"/>
<path d="M276.689 55.6601L274.41 57.9414L283.147 66.6658L285.425 64.3845L276.689 55.6601Z" fill="#FACD49"/>
<path d="M274.429 64.4135L276.71 66.6917L285.435 57.9551L283.153 55.677L274.429 64.4135Z" fill="#FACD49"/>
<path d="M299.635 55.6599L297.356 57.9412L306.093 66.6655L308.371 64.3843L299.635 55.6599Z" fill="#FACD49"/>
<path d="M297.349 64.4077L299.63 66.6858L308.355 57.9492L306.073 55.6712L297.349 64.4077Z" fill="#FACD49"/>
<path d="M322.58 55.6589L320.302 57.9402L329.039 66.6645L331.317 64.3833L322.58 55.6589Z" fill="#FACD49"/>
<path d="M320.288 64.4192L322.569 66.6973L331.294 57.9607L329.012 55.6826L320.288 64.4192Z" fill="#FACD49"/>
<path d="M346.984 216.208L344.706 218.49L353.443 227.214L355.721 224.933L346.984 216.208Z" fill="#FACD49"/>
<path d="M344.687 224.932L346.968 227.21L355.692 218.474L353.411 216.196L344.687 224.932Z" fill="#FACD49"/>
<path d="M346.985 239.285L344.707 241.566L353.444 250.291L355.722 248.009L346.985 239.285Z" fill="#FACD49"/>
<path d="M344.7 248.031L346.981 250.309L355.705 241.573L353.424 239.294L344.7 248.031Z" fill="#FACD49"/>
<path d="M346.99 260.749L344.712 263.031L353.449 271.755L355.727 269.474L346.99 260.749Z" fill="#FACD49"/>
<path d="M344.713 269.495L346.994 271.773L355.718 263.036L353.437 260.758L344.713 269.495Z" fill="#FACD49"/>
<path d="M346.923 147.825L344.645 150.106L353.381 158.83L355.659 156.549L346.923 147.825Z" fill="#FACD49"/>
<path d="M344.626 156.581L346.907 158.859L355.632 150.123L353.351 147.844L344.626 156.581Z" fill="#FACD49"/>
<path d="M346.936 170.906L344.658 173.188L353.395 181.912L355.673 179.631L346.936 170.906Z" fill="#FACD49"/>
<path d="M344.663 179.65L346.944 181.928L355.668 173.192L353.387 170.914L344.663 179.65Z" fill="#FACD49"/>
<path d="M346.959 192.371L344.681 194.652L353.418 203.376L355.696 201.095L346.959 192.371Z" fill="#FACD49"/>
<path d="M344.675 201.114L346.956 203.392L355.68 194.656L353.399 192.378L344.675 201.114Z" fill="#FACD49"/>
<path d="M346.863 79.4587L344.584 81.74L353.321 90.4643L355.599 88.1831L346.863 79.4587Z" fill="#FACD49"/>
<path d="M344.585 88.2126L346.866 90.4907L355.591 81.7542L353.309 79.4761L344.585 88.2126Z" fill="#FACD49"/>
<path d="M346.875 102.54L344.596 104.822L353.333 113.546L355.611 111.265L346.875 102.54Z" fill="#FACD49"/>
<path d="M344.584 111.299L346.865 113.577L355.59 104.841L353.308 102.563L344.584 111.299Z" fill="#FACD49"/>
<path d="M346.899 124.005L344.621 126.286L353.357 135.01L355.636 132.729L346.899 124.005Z" fill="#FACD49"/>
<path d="M344.597 132.763L346.878 135.042L355.603 126.305L353.321 124.027L344.597 132.763Z" fill="#FACD49"/>
<path d="M346.826 11.093L344.548 13.3743L353.285 22.0986L355.563 19.8174L346.826 11.093Z" fill="#FACD49"/>
<path d="M344.542 19.8374L346.823 22.1155L355.547 13.3789L353.266 11.1008L344.542 19.8374Z" fill="#FACD49"/>
<path d="M346.857 34.1745L344.579 36.4558L353.316 45.1802L355.594 42.8989L346.857 34.1745Z" fill="#FACD49"/>
<path d="M344.56 42.906L346.841 45.1841L355.565 36.4475L353.284 34.1694L344.56 42.906Z" fill="#FACD49"/>
<path d="M346.862 55.6391L344.584 57.9204L353.321 66.6448L355.599 64.3635L346.862 55.6391Z" fill="#FACD49"/>
<path d="M344.572 64.3701L346.853 66.6482L355.577 57.9116L353.296 55.6335L344.572 64.3701Z" fill="#FACD49"/>
</g>
<path d="M125.061 0H120.456V11.5142H125.061V0Z" fill="#FF5722"/>
<path d="M125.061 0H120.456V11.5142H125.061V0Z" fill="#FF5722"/>
<path d="M125.061 190.001H120.456V201.516H125.061V190.001Z" fill="#FF5722"/>
<path d="M33.5147 98.4551H22.0005V103.061H33.5147V98.4551Z" fill="#FF5722"/>
<path d="M33.5147 98.4551H22.0005V103.061H33.5147V98.4551Z" fill="#FF5722"/>
<path d="M223.516 98.4551H212.001V103.061H223.516V98.4551Z" fill="#FF5722"/>
<path d="M53.1544 27.8827L49.8977 31.1394L58.0394 39.2811L61.2961 36.0244L53.1544 27.8827Z" fill="#FF5722"/>
<path d="M53.1544 27.8827L49.8977 31.1394L58.0394 39.2811L61.2961 36.0244L53.1544 27.8827Z" fill="#FF5722"/>
<path d="M187.487 162.244L184.231 165.501L192.372 173.643L195.629 170.386L187.487 162.244Z" fill="#FF5722"/>
<path d="M58.0292 162.228L49.8889 170.372L53.1462 173.628L61.2865 165.485L58.0292 162.228Z" fill="#FF5722"/>
<path d="M58.0292 162.228L49.8889 170.372L53.1462 173.628L61.2865 165.485L58.0292 162.228Z" fill="#FF5722"/>
<path d="M192.375 27.8778L184.235 36.021L187.492 39.2771L195.633 31.134L192.375 27.8778Z" fill="#FF5722"/>
<path d="M102.043 2.12837L97.5588 3.17773L100.182 14.3891L104.667 13.3397L102.043 2.12837Z" fill="#FF5722"/>
<path d="M102.043 2.12837L97.5588 3.17773L100.182 14.3891L104.667 13.3397L102.043 2.12837Z" fill="#FF5722"/>
<path d="M145.341 187.139L140.856 188.188L143.48 199.399L147.964 198.35L145.341 187.139Z" fill="#FF5722"/>
<path d="M35.3474 118.848L24.137 121.476L25.1879 125.96L36.3983 123.332L35.3474 118.848Z" fill="#FF5722"/>
<path d="M35.3474 118.848L24.137 121.476L25.1879 125.96L36.3983 123.332L35.3474 118.848Z" fill="#FF5722"/>
<path d="M220.345 75.5663L209.134 78.1917L210.184 82.676L221.395 80.0506L220.345 75.5663Z" fill="#FF5722"/>
<path d="M38.3727 45.6651L35.9443 49.5786L45.728 55.6495L48.1564 51.736L38.3727 45.6651Z" fill="#FF5722"/>
<path d="M38.3727 45.6651L35.9443 49.5786L45.728 55.6495L48.1564 51.736L38.3727 45.6651Z" fill="#FF5722"/>
<path d="M199.798 145.852L197.369 149.765L207.153 155.836L209.581 151.923L199.798 145.852Z" fill="#FF5722"/>
<path d="M73.7552 175.359L67.6826 185.142L71.5957 187.571L77.6682 177.788L73.7552 175.359Z" fill="#FF5722"/>
<path d="M73.7552 175.359L67.6826 185.142L71.5957 187.571L77.6682 177.788L73.7552 175.359Z" fill="#FF5722"/>
<path d="M173.921 13.9278L167.849 23.7104L171.762 26.1395L177.834 16.3569L173.921 13.9278Z" fill="#FF5722"/>
<path d="M87.7366 6.24221L83.4558 7.94141L87.7038 18.6433L91.9846 16.9441L87.7366 6.24221Z" fill="#FF5722"/>
<path d="M87.7366 6.24221L83.4558 7.94141L87.7038 18.6433L91.9846 16.9441L87.7366 6.24221Z" fill="#FF5722"/>
<path d="M157.817 182.855L153.536 184.554L157.784 195.256L162.065 193.557L157.817 182.855Z" fill="#FF5722"/>
<path d="M38.956 131.525L28.2542 135.773L29.9533 140.054L40.6552 135.806L38.956 131.525Z" fill="#FF5722"/>
<path d="M38.956 131.525L28.2542 135.773L29.9533 140.054L40.6552 135.806L38.956 131.525Z" fill="#FF5722"/>
<path d="M215.569 61.4442L204.867 65.6921L206.566 69.9729L217.268 65.7249L215.569 61.4442Z" fill="#FF5722"/>
<path d="M31.1763 58.6984L29.3501 62.9265L39.9205 67.492L41.7466 63.2638L31.1763 58.6984Z" fill="#FF5722"/>
<path d="M31.1763 58.6984L29.3501 62.9265L39.9205 67.492L41.7466 63.2638L31.1763 58.6984Z" fill="#FF5722"/>
<path d="M205.623 134.038L203.797 138.266L214.367 142.832L216.193 138.604L205.623 134.038Z" fill="#FF5722"/>
<path d="M85.2819 181.792L80.7183 192.363L84.9467 194.189L89.5103 183.618L85.2819 181.792Z" fill="#FF5722"/>
<path d="M85.2819 181.792L80.7183 192.363L84.9467 194.189L89.5103 183.618L85.2819 181.792Z" fill="#FF5722"/>
<path d="M160.581 7.34412L156.018 17.9153L160.246 19.7407L164.81 9.16956L160.581 7.34412Z" fill="#FF5722"/>
<path d="M67.1243 16.7269L63.3433 19.3567L69.9179 28.8092L73.6989 26.1794L67.1243 16.7269Z" fill="#FF5722"/>
<path d="M67.1243 16.7269L63.3433 19.3567L69.9179 28.8092L73.6989 26.1794L67.1243 16.7269Z" fill="#FF5722"/>
<path d="M175.615 172.698L171.833 175.328L178.408 184.78L182.189 182.15L175.615 172.698Z" fill="#FF5722"/>
<path d="M48.1855 149.818L38.7329 156.392L41.3628 160.173L50.8153 153.599L48.1855 149.818Z" fill="#FF5722"/>
<path d="M48.1855 149.818L38.7329 156.392L41.3628 160.173L50.8153 153.599L48.1855 149.818Z" fill="#FF5722"/>
<path d="M204.17 41.3512L194.717 47.9258L197.347 51.7068L206.8 45.1322L204.17 41.3512Z" fill="#FF5722"/>
<path d="M23.9927 80.6766L23.1787 85.2097L34.5116 87.2447L35.3256 82.7116L23.9927 80.6766Z" fill="#FF5722"/>
<path d="M23.9927 80.6766L23.1787 85.2097L34.5116 87.2447L35.3256 82.7116L23.9927 80.6766Z" fill="#FF5722"/>
<path d="M211.018 114.268L210.204 118.801L221.537 120.836L222.351 116.303L211.018 114.268Z" fill="#FF5722"/>
<path d="M104.731 188.187L102.698 199.52L107.232 200.333L109.265 189L104.731 188.187Z" fill="#FF5722"/>
<path d="M104.731 188.187L102.698 199.52L107.232 200.333L109.265 189L104.731 188.187Z" fill="#FF5722"/>
<path d="M138.294 1.17163L136.261 12.5049L140.794 13.3181L142.827 1.98485L138.294 1.17163Z" fill="#FF5722"/>
</g>
<defs>
<clipPath id="clip0_832_28">
<rect width="447.511" height="272" fill="white"/>
</clipPath>
</defs>
</svg>
