<svg width="473" height="313" viewBox="0 0 473 313" fill="none" xmlns="http://www.w3.org/2000/svg">
<g filter="url(#filter0_dddd_832_1126)">
<rect x="83" y="19" width="307" height="72" rx="36" fill="white"/>
<path d="M130.247 47.4805C129.314 47.4805 128.581 48.2305 128.581 49.1471C128.581 50.0638 129.331 50.8138 130.247 50.8138C131.164 50.8138 131.914 50.0638 131.914 49.1471C131.914 48.2305 131.164 47.4805 130.247 47.4805Z" fill="#FF5722"/>
<path d="M150.767 43.3999C149.367 40.1499 146.283 38.3333 141.983 38.3333H128.017C122.667 38.3333 118.333 42.6666 118.333 48.0166V61.9833C118.333 66.2833 120.15 69.3666 123.4 70.7666C123.717 70.8999 124.083 70.8166 124.317 70.5833L150.583 44.3166C150.833 44.0666 150.917 43.6999 150.767 43.3999ZM132.55 55.3999C131.9 56.0333 131.05 56.3333 130.2 56.3333C129.35 56.3333 128.5 56.0166 127.85 55.3999C126.15 53.7999 124.283 51.2499 125 48.2166C125.633 45.4666 128.067 44.2333 130.2 44.2333C132.333 44.2333 134.767 45.4666 135.4 48.2333C136.1 51.2499 134.233 53.7999 132.55 55.3999Z" fill="#FF5722"/>
<path d="M147.448 69.2159C147.815 69.5826 147.765 70.1826 147.315 70.4326C145.848 71.2492 144.065 71.6659 141.981 71.6659H128.015C127.532 71.6659 127.332 71.0992 127.665 70.7659L137.731 60.6992C138.065 60.3659 138.581 60.3659 138.915 60.6992L147.448 69.2159Z" fill="#FF5722"/>
<path d="M151.67 48.0149V61.9815C151.67 64.0648 151.253 65.8648 150.436 67.3148C150.186 67.7648 149.586 67.7982 149.22 67.4482L140.686 58.9148C140.353 58.5815 140.353 58.0648 140.686 57.7315L150.753 47.6649C151.103 47.3315 151.67 47.5315 151.67 48.0149Z" fill="#FF5722"/>
<path d="M176.06 54.122H178.567C180.154 54.122 181.12 53.202 181.12 51.799C181.12 50.35 180.154 49.453 178.567 49.453H176.06V54.122ZM178.958 56.859H176.037V63H172.863V46.693H178.958C182.178 46.693 184.317 48.832 184.317 51.776C184.317 54.743 182.178 56.859 178.958 56.859ZM185.487 59.918C185.487 57.894 186.982 56.767 188.868 56.491L191.651 56.077C192.295 55.985 192.502 55.663 192.502 55.272C192.502 54.467 191.881 53.8 190.593 53.8C189.259 53.8 188.523 54.651 188.431 55.64L185.717 55.065C185.901 53.294 187.534 51.339 190.57 51.339C194.158 51.339 195.492 53.363 195.492 55.64V61.206C195.492 61.804 195.561 62.609 195.63 63H192.824C192.755 62.701 192.709 62.08 192.709 61.643C192.134 62.54 191.053 63.322 189.374 63.322C186.959 63.322 185.487 61.689 185.487 59.918ZM190.018 61.045C191.306 61.045 192.502 60.424 192.502 58.423V57.917L189.949 58.308C189.167 58.423 188.546 58.86 188.546 59.734C188.546 60.401 189.029 61.045 190.018 61.045ZM205.475 51.638V54.72C205.13 54.651 204.831 54.628 204.555 54.628C202.991 54.628 201.634 55.387 201.634 57.825V63H198.575V51.684H201.542V53.363C202.232 51.868 203.796 51.592 204.762 51.592C205.015 51.592 205.245 51.615 205.475 51.638ZM207.005 59.918C207.005 57.894 208.5 56.767 210.386 56.491L213.169 56.077C213.813 55.985 214.02 55.663 214.02 55.272C214.02 54.467 213.399 53.8 212.111 53.8C210.777 53.8 210.041 54.651 209.949 55.64L207.235 55.065C207.419 53.294 209.052 51.339 212.088 51.339C215.676 51.339 217.01 53.363 217.01 55.64V61.206C217.01 61.804 217.079 62.609 217.148 63H214.342C214.273 62.701 214.227 62.08 214.227 61.643C213.652 62.54 212.571 63.322 210.892 63.322C208.477 63.322 207.005 61.689 207.005 59.918ZM211.536 61.045C212.824 61.045 214.02 60.424 214.02 58.423V57.917L211.467 58.308C210.685 58.423 210.064 58.86 210.064 59.734C210.064 60.401 210.547 61.045 211.536 61.045ZM230.835 46.348V60.953C230.835 61.712 230.881 62.54 230.927 63H228.006C227.96 62.77 227.891 62.218 227.891 61.689C227.385 62.586 226.235 63.276 224.717 63.276C221.497 63.276 219.197 60.746 219.197 57.319C219.197 54.007 221.428 51.408 224.625 51.408C226.58 51.408 227.5 52.213 227.822 52.811V46.348H230.835ZM222.279 57.319C222.279 59.343 223.475 60.539 225.085 60.539C226.649 60.539 227.868 59.343 227.868 57.296C227.868 55.272 226.649 54.145 225.085 54.145C223.521 54.145 222.279 55.295 222.279 57.319ZM237.213 63H234.154V51.684H237.213V63ZM233.786 47.981C233.786 46.923 234.637 46.072 235.672 46.072C236.73 46.072 237.558 46.923 237.558 47.981C237.558 48.993 236.73 49.844 235.672 49.844C234.637 49.844 233.786 48.993 233.786 47.981ZM239.521 59.849L242.143 59.274C242.212 60.171 242.879 60.999 244.213 60.999C245.225 60.999 245.708 60.47 245.708 59.872C245.708 59.366 245.363 58.952 244.489 58.768L242.994 58.423C240.809 57.94 239.82 56.629 239.82 55.042C239.82 53.018 241.614 51.339 244.052 51.339C247.272 51.339 248.353 53.386 248.491 54.605L245.938 55.18C245.846 54.513 245.363 53.662 244.075 53.662C243.27 53.662 242.626 54.145 242.626 54.789C242.626 55.341 243.04 55.686 243.661 55.801L245.271 56.146C247.502 56.606 248.629 57.963 248.629 59.619C248.629 61.459 247.203 63.345 244.236 63.345C240.832 63.345 239.659 61.137 239.521 59.849ZM253.275 56.054H258.335C258.289 54.927 257.553 53.823 255.805 53.823C254.218 53.823 253.344 55.019 253.275 56.054ZM258.634 58.998L261.187 59.757C260.612 61.712 258.818 63.345 256.035 63.345C252.93 63.345 250.193 61.114 250.193 57.296C250.193 53.685 252.861 51.339 255.759 51.339C259.255 51.339 261.348 53.57 261.348 57.204C261.348 57.641 261.302 58.101 261.302 58.147H253.206C253.275 59.642 254.54 60.723 256.058 60.723C257.484 60.723 258.266 60.01 258.634 58.998ZM274.523 60.562C276.018 60.562 277.398 59.481 277.398 57.342C277.398 55.203 276.018 54.122 274.523 54.122C273.028 54.122 271.648 55.203 271.648 57.342C271.648 59.458 273.028 60.562 274.523 60.562ZM274.523 51.339C277.904 51.339 280.457 53.846 280.457 57.342C280.457 60.815 277.904 63.345 274.523 63.345C271.142 63.345 268.589 60.815 268.589 57.342C268.589 53.846 271.142 51.339 274.523 51.339ZM285.93 56.491V63H282.871V51.684H285.838V53.087C286.528 51.914 287.885 51.385 289.104 51.385C291.91 51.385 293.198 53.386 293.198 55.87V63H290.139V56.399C290.139 55.134 289.518 54.145 288.046 54.145C286.712 54.145 285.93 55.18 285.93 56.491ZM312.428 63H302.216V46.693H312.428V49.683H305.39V53.409H311.761V56.238H305.39V60.01H312.428V63ZM314.547 59.918C314.547 57.894 316.042 56.767 317.928 56.491L320.711 56.077C321.355 55.985 321.562 55.663 321.562 55.272C321.562 54.467 320.941 53.8 319.653 53.8C318.319 53.8 317.583 54.651 317.491 55.64L314.777 55.065C314.961 53.294 316.594 51.339 319.63 51.339C323.218 51.339 324.552 53.363 324.552 55.64V61.206C324.552 61.804 324.621 62.609 324.69 63H321.884C321.815 62.701 321.769 62.08 321.769 61.643C321.194 62.54 320.113 63.322 318.434 63.322C316.019 63.322 314.547 61.689 314.547 59.918ZM319.078 61.045C320.366 61.045 321.562 60.424 321.562 58.423V57.917L319.009 58.308C318.227 58.423 317.606 58.86 317.606 59.734C317.606 60.401 318.089 61.045 319.078 61.045ZM334.536 51.638V54.72C334.191 54.651 333.892 54.628 333.616 54.628C332.052 54.628 330.695 55.387 330.695 57.825V63H327.636V51.684H330.603V53.363C331.293 51.868 332.857 51.592 333.823 51.592C334.076 51.592 334.306 51.615 334.536 51.638ZM340.909 48.303V51.684H343.186V54.398H340.909V59.136C340.909 60.125 341.369 60.447 342.243 60.447C342.611 60.447 343.025 60.401 343.186 60.355V62.885C342.91 63 342.358 63.161 341.461 63.161C339.253 63.161 337.873 61.85 337.873 59.665V54.398H335.826V51.684H336.401C337.597 51.684 338.149 50.902 338.149 49.89V48.303H340.909ZM348.282 56.353V63H345.223V46.348H348.282V52.627C349.018 51.753 350.26 51.385 351.341 51.385C354.216 51.385 355.55 53.386 355.55 55.87V63H352.491V56.399C352.491 55.134 351.87 54.145 350.398 54.145C349.11 54.145 348.351 55.111 348.282 56.353Z" fill="#191825"/>
</g>
<defs>
<filter id="filter0_dddd_832_1126" x="0" y="0" width="473" height="313" filterUnits="userSpaceOnUse" color-interpolation-filters="sRGB">
<feFlood flood-opacity="0" result="BackgroundImageFix"/>
<feColorMatrix in="SourceAlpha" type="matrix" values="0 0 0 0 0 0 0 0 0 0 0 0 0 0 0 0 0 0 127 0" result="hardAlpha"/>
<feOffset/>
<feColorMatrix type="matrix" values="0 0 0 0 0 0 0 0 0 0 0 0 0 0 0 0 0 0 0.03 0"/>
<feBlend mode="normal" in2="BackgroundImageFix" result="effect1_dropShadow_832_1126"/>
<feColorMatrix in="SourceAlpha" type="matrix" values="0 0 0 0 0 0 0 0 0 0 0 0 0 0 0 0 0 0 127 0" result="hardAlpha"/>
<feOffset dy="15"/>
<feGaussianBlur stdDeviation="17"/>
<feColorMatrix type="matrix" values="0 0 0 0 0 0 0 0 0 0 0 0 0 0 0 0 0 0 0.03 0"/>
<feBlend mode="normal" in2="effect1_dropShadow_832_1126" result="effect2_dropShadow_832_1126"/>
<feColorMatrix in="SourceAlpha" type="matrix" values="0 0 0 0 0 0 0 0 0 0 0 0 0 0 0 0 0 0 127 0" result="hardAlpha"/>
<feOffset dy="62"/>
<feGaussianBlur stdDeviation="31"/>
<feColorMatrix type="matrix" values="0 0 0 0 0 0 0 0 0 0 0 0 0 0 0 0 0 0 0.02 0"/>
<feBlend mode="normal" in2="effect2_dropShadow_832_1126" result="effect3_dropShadow_832_1126"/>
<feColorMatrix in="SourceAlpha" type="matrix" values="0 0 0 0 0 0 0 0 0 0 0 0 0 0 0 0 0 0 127 0" result="hardAlpha"/>
<feOffset dy="139"/>
<feGaussianBlur stdDeviation="41.5"/>
<feColorMatrix type="matrix" values="0 0 0 0 0 0 0 0 0 0 0 0 0 0 0 0 0 0 0.01 0"/>
<feBlend mode="normal" in2="effect3_dropShadow_832_1126" result="effect4_dropShadow_832_1126"/>
<feBlend mode="normal" in="SourceGraphic" in2="effect4_dropShadow_832_1126" result="shape"/>
</filter>
</defs>
</svg>
