<svg width="184" height="177" viewBox="0 0 184 177" fill="none" xmlns="http://www.w3.org/2000/svg">
<g clip-path="url(#clip0_832_1248)">
<path d="M4.83998 128.32C3.39998 128.32 2.22998 129.5 2.22998 130.95C2.22998 132.4 3.39998 133.58 4.83998 133.58C6.27998 133.58 7.44998 132.4 7.44998 130.95C7.44998 129.5 6.27998 128.32 4.83998 128.32Z" fill="#FF5722"/>
<path d="M49.5 133.58C50.9415 133.58 52.11 132.402 52.11 130.95C52.11 129.497 50.9415 128.32 49.5 128.32C48.0586 128.32 46.89 129.497 46.89 130.95C46.89 132.402 48.0586 133.58 49.5 133.58Z" fill="#FF5722"/>
<path d="M27.1701 128.32C25.7301 128.32 24.5601 129.5 24.5601 130.95C24.5601 132.4 25.7301 133.58 27.1701 133.58C28.6101 133.58 29.7801 132.4 29.7801 130.95C29.7801 129.5 28.6101 128.32 27.1701 128.32Z" fill="#FF5722"/>
<path d="M26.7999 106.94C25.3599 106.94 24.1899 108.12 24.1899 109.57C24.1899 111.02 25.3599 112.2 26.7999 112.2C28.2399 112.2 29.4099 111.02 29.4099 109.57C29.4099 108.12 28.2399 106.94 26.7999 106.94Z" fill="#FF5722"/>
<path d="M4.46999 106.94C3.02998 106.94 1.85999 108.12 1.85999 109.57C1.85999 111.02 3.02998 112.2 4.46999 112.2C5.90999 112.2 7.07999 111.02 7.07999 109.57C7.07999 108.12 5.90999 106.94 4.46999 106.94Z" fill="#FF5722"/>
<path d="M71.46 106.94C70.02 106.94 68.85 108.12 68.85 109.57C68.85 111.02 70.02 112.2 71.46 112.2C72.9 112.2 74.07 111.02 74.07 109.57C74.07 108.12 72.9 106.94 71.46 106.94Z" fill="#FF5722"/>
<path d="M49.13 106.94C47.69 106.94 46.52 108.12 46.52 109.57C46.52 111.02 47.69 112.2 49.13 112.2C50.57 112.2 51.74 111.02 51.74 109.57C51.74 108.12 50.57 106.94 49.13 106.94Z" fill="#FF5722"/>
<path d="M4.83998 171.1C3.39998 171.1 2.22998 172.28 2.22998 173.73C2.22998 175.18 3.39998 176.36 4.83998 176.36C6.27998 176.36 7.44998 175.18 7.44998 173.73C7.44998 172.28 6.27998 171.1 4.83998 171.1Z" fill="#FF5722"/>
<path d="M26.7999 149.71C25.3599 149.71 24.1899 150.89 24.1899 152.34C24.1899 153.79 25.3599 154.97 26.7999 154.97C28.2399 154.97 29.4099 153.79 29.4099 152.34C29.4099 150.89 28.2399 149.71 26.7999 149.71Z" fill="#FF5722"/>
<path d="M4.46999 149.71C3.02998 149.71 1.85999 150.89 1.85999 152.34C1.85999 153.79 3.02998 154.97 4.46999 154.97C5.90999 154.97 7.07999 153.79 7.07999 152.34C7.07999 150.89 5.90999 149.71 4.46999 149.71Z" fill="#FF5722"/>
<path d="M93.4201 85.5498C91.9801 85.5498 90.8101 86.7298 90.8101 88.1798C90.8101 89.6298 91.9801 90.8098 93.4201 90.8098C94.8601 90.8098 96.0301 89.6298 96.0301 88.1798C96.0301 86.7298 94.8601 85.5498 93.4201 85.5498Z" fill="#FF5722"/>
<path d="M48.76 85.5498C47.32 85.5498 46.15 86.7298 46.15 88.1798C46.15 89.6298 47.32 90.8098 48.76 90.8098C50.2 90.8098 51.37 89.6298 51.37 88.1798C51.37 86.7298 50.2 85.5498 48.76 85.5498Z" fill="#FF5722"/>
<path d="M71.09 90.8098C72.5314 90.8098 73.7 89.6323 73.7 88.1798C73.7 86.7273 72.5314 85.5498 71.09 85.5498C69.6485 85.5498 68.48 86.7273 68.48 88.1798C68.48 89.6323 69.6485 90.8098 71.09 90.8098Z" fill="#FF5722"/>
<path d="M26.4201 85.5498C24.9801 85.5498 23.8101 86.7298 23.8101 88.1798C23.8101 89.6298 24.9801 90.8098 26.4201 90.8098C27.8601 90.8098 29.0301 89.6298 29.0301 88.1798C29.0301 86.7298 27.8701 85.5498 26.4201 85.5498Z" fill="#FF5722"/>
<path d="M4.08998 85.5498C2.64998 85.5498 1.47998 86.7298 1.47998 88.1798C1.47998 89.6298 2.64998 90.8098 4.08998 90.8098C5.52998 90.8098 6.69998 89.6298 6.69998 88.1798C6.69998 86.7298 5.52998 85.5498 4.08998 85.5498Z" fill="#FF5722"/>
<path d="M93.0401 64.1602C91.6001 64.1602 90.4301 65.3402 90.4301 66.7902C90.4301 68.2402 91.6001 69.4202 93.0401 69.4202C94.4801 69.4202 95.6501 68.2402 95.6501 66.7902C95.6501 65.3402 94.4801 64.1602 93.0401 64.1602Z" fill="#FF5722"/>
<path d="M70.71 64.1602C69.27 64.1602 68.1 65.3402 68.1 66.7902C68.1 68.2402 69.27 69.4202 70.71 69.4202C72.15 69.4202 73.32 68.2402 73.32 66.7902C73.32 65.3402 72.15 64.1602 70.71 64.1602Z" fill="#FF5722"/>
<path d="M48.38 64.1602C46.94 64.1602 45.77 65.3402 45.77 66.7902C45.77 68.2402 46.94 69.4202 48.38 69.4202C49.82 69.4202 50.99 68.2402 50.99 66.7902C50.99 65.3402 49.82 64.1602 48.38 64.1602Z" fill="#FF5722"/>
<path d="M115.38 64.1602C113.94 64.1602 112.77 65.3402 112.77 66.7902C112.77 68.2402 113.94 69.4202 115.38 69.4202C116.82 69.4202 117.99 68.2402 117.99 66.7902C117.99 65.3402 116.82 64.1602 115.38 64.1602Z" fill="#FF5722"/>
<path d="M3.71999 64.1602C2.27999 64.1602 1.10999 65.3402 1.10999 66.7902C1.10999 68.2402 2.27999 69.4202 3.71999 69.4202C5.15999 69.4202 6.32999 68.2402 6.32999 66.7902C6.32999 65.3402 5.15999 64.1602 3.71999 64.1602Z" fill="#FF5722"/>
<path d="M26.0499 64.1602C24.6099 64.1602 23.4399 65.3402 23.4399 66.7902C23.4399 68.2402 24.6099 69.4202 26.0499 69.4202C27.4899 69.4202 28.6599 68.2402 28.6599 66.7902C28.6599 65.3402 27.4899 64.1602 26.0499 64.1602Z" fill="#FF5722"/>
<path d="M3.34999 42.77C1.90999 42.77 0.73999 43.95 0.73999 45.4C0.73999 46.85 1.90999 48.03 3.34999 48.03C4.78999 48.03 5.95999 46.85 5.95999 45.4C5.95999 43.95 4.78999 42.77 3.34999 42.77Z" fill="#FF5722"/>
<path d="M92.6701 48.03C94.1115 48.03 95.2801 46.8525 95.2801 45.4C95.2801 43.9475 94.1115 42.77 92.6701 42.77C91.2286 42.77 90.0601 43.9475 90.0601 45.4C90.0601 46.8525 91.2286 48.03 92.6701 48.03Z" fill="#FF5722"/>
<path d="M137.33 48.03C138.771 48.03 139.94 46.8525 139.94 45.4C139.94 43.9475 138.771 42.77 137.33 42.77C135.889 42.77 134.72 43.9475 134.72 45.4C134.72 46.8525 135.889 48.03 137.33 48.03Z" fill="#FF5722"/>
<path d="M70.34 42.77C68.9 42.77 67.73 43.95 67.73 45.4C67.73 46.85 68.9 48.03 70.34 48.03C71.78 48.03 72.95 46.85 72.95 45.4C72.95 43.95 71.78 42.77 70.34 42.77Z" fill="#FF5722"/>
<path d="M48.01 42.77C46.57 42.77 45.4 43.95 45.4 45.4C45.4 46.85 46.57 48.03 48.01 48.03C49.45 48.03 50.62 46.85 50.62 45.4C50.62 43.95 49.45 42.77 48.01 42.77Z" fill="#FF5722"/>
<path d="M25.6799 42.77C24.2399 42.77 23.0699 43.95 23.0699 45.4C23.0699 46.85 24.2399 48.03 25.6799 48.03C27.1199 48.03 28.2899 46.85 28.2899 45.4C28.2899 43.95 27.1199 42.77 25.6799 42.77Z" fill="#FF5722"/>
<path d="M115 42.77C113.56 42.77 112.39 43.95 112.39 45.4C112.39 46.85 113.56 48.03 115 48.03C116.44 48.03 117.61 46.85 117.61 45.4C117.61 43.95 116.44 42.77 115 42.77Z" fill="#FF5722"/>
<path d="M2.98 26.6399C4.42146 26.6399 5.59 25.4624 5.59 24.0099C5.59 22.5574 4.42146 21.3799 2.98 21.3799C1.53853 21.3799 0.369995 22.5574 0.369995 24.0099C0.369995 25.4624 1.53853 26.6399 2.98 26.6399Z" fill="#FF5722"/>
<path d="M114.63 21.3901C113.19 21.3901 112.02 22.5701 112.02 24.0201C112.02 25.4701 113.19 26.6501 114.63 26.6501C116.07 26.6501 117.24 25.4701 117.24 24.0201C117.24 22.5701 116.07 21.3901 114.63 21.3901Z" fill="#FF5722"/>
<path d="M25.3099 21.3901C23.8699 21.3901 22.7 22.5701 22.7 24.0201C22.7 25.4701 23.8699 26.6501 25.3099 26.6501C26.7499 26.6501 27.92 25.4701 27.92 24.0201C27.92 22.5701 26.7499 21.3901 25.3099 21.3901Z" fill="#FF5722"/>
<path d="M69.97 21.3901C68.53 21.3901 67.36 22.5701 67.36 24.0201C67.36 25.4701 68.53 26.6501 69.97 26.6501C71.41 26.6501 72.58 25.4701 72.58 24.0201C72.58 22.5701 71.41 21.3901 69.97 21.3901Z" fill="#FF5722"/>
<path d="M47.64 21.3901C46.2 21.3901 45.03 22.5701 45.03 24.0201C45.03 25.4701 46.2 26.6501 47.64 26.6501C49.08 26.6501 50.25 25.4701 50.25 24.0201C50.25 22.5701 49.08 21.3901 47.64 21.3901Z" fill="#FF5722"/>
<path d="M92.2999 21.3901C90.8599 21.3901 89.6899 22.5701 89.6899 24.0201C89.6899 25.4701 90.8599 26.6501 92.2999 26.6501C93.7399 26.6501 94.9099 25.4701 94.9099 24.0201C94.9099 22.5701 93.7399 21.3901 92.2999 21.3901Z" fill="#FF5722"/>
<path d="M159.29 21.3901C157.85 21.3901 156.68 22.5701 156.68 24.0201C156.68 25.4701 157.85 26.6501 159.29 26.6501C160.73 26.6501 161.9 25.4701 161.9 24.0201C161.9 22.5701 160.74 21.3901 159.29 21.3901Z" fill="#FF5722"/>
<path d="M136.96 21.3901C135.52 21.3901 134.35 22.5701 134.35 24.0201C134.35 25.4701 135.52 26.6501 136.96 26.6501C138.4 26.6501 139.57 25.4701 139.57 24.0201C139.57 22.5701 138.41 21.3901 136.96 21.3901Z" fill="#FF5722"/>
<path d="M24.94 5.25023C26.38 5.25023 27.55 4.07023 27.55 2.62023C27.55 1.17023 26.38 -0.00976562 24.94 -0.00976562C23.5 -0.00976562 22.33 1.17023 22.33 2.62023C22.33 4.07023 23.5 5.25023 24.94 5.25023Z" fill="#FF5722"/>
<path d="M2.61 5.25C4.05 5.25 5.22 4.07 5.22 2.62C5.22 1.17 4.04 0 2.61 0C1.18 0 0 1.18 0 2.63C0 4.08 1.17 5.26 2.61 5.26V5.25Z" fill="#FF5722"/>
<path d="M158.92 5.26C160.362 5.26 161.53 4.08251 161.53 2.63C161.53 1.17749 160.362 0 158.92 0C157.479 0 156.31 1.17749 156.31 2.63C156.31 4.08251 157.479 5.26 158.92 5.26Z" fill="#FF5722"/>
<path d="M91.9299 5.25023C93.3699 5.25023 94.5399 4.07023 94.5399 2.62023C94.5399 1.17023 93.3699 -0.00976562 91.9299 -0.00976562C90.4899 -0.00976562 89.3199 1.17023 89.3199 2.62023C89.3199 4.07023 90.4899 5.25023 91.9299 5.25023Z" fill="#FF5722"/>
<path d="M114.26 5.25023C115.7 5.25023 116.87 4.07023 116.87 2.62023C116.87 1.17023 115.7 -0.00976562 114.26 -0.00976562C112.82 -0.00976562 111.65 1.17023 111.65 2.62023C111.65 4.07023 112.82 5.25023 114.26 5.25023Z" fill="#FF5722"/>
<path d="M136.59 5.25023C138.03 5.25023 139.2 4.07023 139.2 2.62023C139.2 1.17023 138.03 -0.00976562 136.59 -0.00976562C135.15 -0.00976562 133.98 1.17023 133.98 2.62023C133.98 4.07023 135.15 5.25023 136.59 5.25023Z" fill="#FF5722"/>
<path d="M47.27 5.25023C48.71 5.25023 49.88 4.07023 49.88 2.62023C49.88 1.17023 48.71 -0.00976562 47.27 -0.00976562C45.83 -0.00976562 44.66 1.17023 44.66 2.62023C44.66 4.07023 45.83 5.25023 47.27 5.25023Z" fill="#FF5722"/>
<path d="M181.25 5.25023C182.69 5.25023 183.86 4.07023 183.86 2.62023C183.86 1.17023 182.7 -0.00976562 181.25 -0.00976562C179.8 -0.00976562 178.64 1.17023 178.64 2.62023C178.64 4.07023 179.81 5.25023 181.25 5.25023Z" fill="#FF5722"/>
<path d="M69.6 5.25023C71.04 5.25023 72.21 4.07023 72.21 2.62023C72.21 1.17023 71.04 -0.00976562 69.6 -0.00976562C68.16 -0.00976562 66.99 1.17023 66.99 2.62023C66.99 4.07023 68.16 5.25023 69.6 5.25023Z" fill="#FF5722"/>
</g>
<defs>
<clipPath id="clip0_832_1248">
<rect width="183.86" height="176.35" fill="white"/>
</clipPath>
</defs>
</svg>
