<svg width="213" height="159" viewBox="0 0 213 159" fill="none" xmlns="http://www.w3.org/2000/svg">
<g filter="url(#filter0_dd_832_872)">
<rect x="31" y="0.35202" width="166" height="50.1879" rx="25.094" fill="white"/>
<path fill-rule="evenodd" clip-rule="evenodd" d="M66.5 23.7638C66.5 19.1639 70.3439 15.446 74.9934 15.446C79.6561 15.446 83.5 19.1639 83.5 23.7638C83.5 26.0817 82.657 28.2336 81.2695 30.0576C79.7388 32.0695 77.8522 33.8225 75.7285 35.1984C75.2425 35.5164 74.8039 35.5404 74.2704 35.1984C72.1347 33.8225 70.2481 32.0695 68.7305 30.0576C67.342 28.2336 66.5 26.0817 66.5 23.7638ZM72.1942 24.0228C72.1942 25.5637 73.4517 26.7757 74.9934 26.7757C76.5362 26.7757 77.8058 25.5637 77.8058 24.0228C77.8058 22.4938 76.5362 21.2228 74.9934 21.2228C73.4517 21.2228 72.1942 22.4938 72.1942 24.0228Z" fill="#FACD49"/>
<path d="M103.442 22.854H100.306V30.946H98.36V22.854H95.224V21.02H103.442V22.854ZM106.43 29.462C107.34 29.462 108.18 28.804 108.18 27.502C108.18 26.2 107.34 25.542 106.43 25.542C105.52 25.542 104.68 26.2 104.68 27.502C104.68 28.79 105.52 29.462 106.43 29.462ZM106.43 23.848C108.488 23.848 110.042 25.374 110.042 27.502C110.042 29.616 108.488 31.156 106.43 31.156C104.372 31.156 102.818 29.616 102.818 27.502C102.818 25.374 104.372 23.848 106.43 23.848ZM113.374 33.606H111.512V24.058H113.318V24.898C113.626 24.366 114.396 23.904 115.432 23.904C117.448 23.904 118.61 25.444 118.61 27.488C118.61 29.574 117.308 31.114 115.362 31.114C114.41 31.114 113.71 30.736 113.374 30.274V33.606ZM116.776 27.502C116.776 26.284 116.02 25.57 115.068 25.57C114.116 25.57 113.346 26.284 113.346 27.502C113.346 28.72 114.116 29.448 115.068 29.448C116.02 29.448 116.776 28.734 116.776 27.502ZM125.629 25.542H127.155C128.121 25.542 128.709 24.982 128.709 24.128C128.709 23.246 128.121 22.7 127.155 22.7H125.629V25.542ZM127.393 27.208H125.615V30.946H123.683V21.02H127.393C129.353 21.02 130.655 22.322 130.655 24.114C130.655 25.92 129.353 27.208 127.393 27.208ZM133.799 30.946H131.937V20.81H133.799V30.946ZM135.332 29.07C135.332 27.838 136.242 27.152 137.39 26.984L139.084 26.732C139.476 26.676 139.602 26.48 139.602 26.242C139.602 25.752 139.224 25.346 138.44 25.346C137.628 25.346 137.18 25.864 137.124 26.466L135.472 26.116C135.584 25.038 136.578 23.848 138.426 23.848C140.61 23.848 141.422 25.08 141.422 26.466V29.854C141.422 30.218 141.464 30.708 141.506 30.946H139.798C139.756 30.764 139.728 30.386 139.728 30.12C139.378 30.666 138.72 31.142 137.698 31.142C136.228 31.142 135.332 30.148 135.332 29.07ZM138.09 29.756C138.874 29.756 139.602 29.378 139.602 28.16V27.852L138.048 28.09C137.572 28.16 137.194 28.426 137.194 28.958C137.194 29.364 137.488 29.756 138.09 29.756ZM146.365 25.57C145.413 25.57 144.615 26.256 144.615 27.502C144.615 28.748 145.427 29.448 146.379 29.448C147.331 29.448 147.807 28.818 147.961 28.286L149.599 28.832C149.291 29.98 148.213 31.156 146.379 31.156C144.349 31.156 142.753 29.616 142.753 27.502C142.753 25.374 144.321 23.848 146.323 23.848C148.199 23.848 149.263 25.01 149.557 26.172L147.891 26.732C147.723 26.158 147.289 25.57 146.365 25.57ZM152.258 26.718H155.338C155.31 26.032 154.862 25.36 153.798 25.36C152.832 25.36 152.3 26.088 152.258 26.718ZM155.52 28.51L157.074 28.972C156.724 30.162 155.632 31.156 153.938 31.156C152.048 31.156 150.382 29.798 150.382 27.474C150.382 25.276 152.006 23.848 153.77 23.848C155.898 23.848 157.172 25.206 157.172 27.418C157.172 27.684 157.144 27.964 157.144 27.992H152.216C152.258 28.902 153.028 29.56 153.952 29.56C154.82 29.56 155.296 29.126 155.52 28.51ZM158.051 29.028L159.647 28.678C159.689 29.224 160.095 29.728 160.907 29.728C161.523 29.728 161.817 29.406 161.817 29.042C161.817 28.734 161.607 28.482 161.075 28.37L160.165 28.16C158.835 27.866 158.233 27.068 158.233 26.102C158.233 24.87 159.325 23.848 160.809 23.848C162.769 23.848 163.427 25.094 163.511 25.836L161.957 26.186C161.901 25.78 161.607 25.262 160.823 25.262C160.333 25.262 159.941 25.556 159.941 25.948C159.941 26.284 160.193 26.494 160.571 26.564L161.551 26.774C162.909 27.054 163.595 27.88 163.595 28.888C163.595 30.008 162.727 31.156 160.921 31.156C158.849 31.156 158.135 29.812 158.051 29.028Z" fill="#393E46"/>
</g>
<defs>
<filter id="filter0_dd_832_872" x="0" y="0.35202" width="228" height="158.188" filterUnits="userSpaceOnUse" color-interpolation-filters="sRGB">
<feFlood flood-opacity="0" result="BackgroundImageFix"/>
<feColorMatrix in="SourceAlpha" type="matrix" values="0 0 0 0 0 0 0 0 0 0 0 0 0 0 0 0 0 0 127 0" result="hardAlpha"/>
<feOffset dy="43"/>
<feGaussianBlur stdDeviation="13"/>
<feColorMatrix type="matrix" values="0 0 0 0 0 0 0 0 0 0 0 0 0 0 0 0 0 0 0.05 0"/>
<feBlend mode="normal" in2="BackgroundImageFix" result="effect1_dropShadow_832_872"/>
<feColorMatrix in="SourceAlpha" type="matrix" values="0 0 0 0 0 0 0 0 0 0 0 0 0 0 0 0 0 0 127 0" result="hardAlpha"/>
<feOffset dy="77"/>
<feGaussianBlur stdDeviation="15.5"/>
<feColorMatrix type="matrix" values="0 0 0 0 0 0 0 0 0 0 0 0 0 0 0 0 0 0 0.01 0"/>
<feBlend mode="normal" in2="effect1_dropShadow_832_872" result="effect2_dropShadow_832_872"/>
<feBlend mode="normal" in="SourceGraphic" in2="effect2_dropShadow_832_872" result="shape"/>
</filter>
</defs>
</svg>
