<svg width="1440" height="1355" viewBox="0 0 1440 1355" fill="none" xmlns="http://www.w3.org/2000/svg">
<g opacity="0.1" clip-path="url(#clip0_832_26)">
<path d="M-619.126 1247.39C-623.071 1224.12 -609.65 882.352 -485.31 599.372C-373.696 345.714 -114.144 201.145 189.633 383.458C515.119 578.852 795.873 598.5 1022.25 541.503C1245.67 484.993 1394.25 314.722 1460.97 206.147C1605.79 -28.4848 1819.72 116.647 1744.58 425.355C1709.12 568.958 1615.65 609.107 1453.68 624.008C1284.38 639.583 1034.25 606.522 687.308 673.897C352.717 739.129 -23.8086 895.793 -235.534 1095.21C-460.861 1307.61 -586.092 1450.44 -619.126 1247.39Z" fill="url(#paint0_linear_832_26)"/>
</g>
<defs>
<linearGradient id="paint0_linear_832_26" x1="1636.47" y1="1062.77" x2="-567.86" y2="379.488" gradientUnits="userSpaceOnUse">
<stop stop-color="#5D50C6"/>
<stop offset="1" stop-color="#F85E9F"/>
</linearGradient>
<clipPath id="clip0_832_26">
<rect width="2506.2" height="958.638" fill="white" transform="translate(-757.527 408.322) rotate(-9.36634)"/>
</clipPath>
</defs>
</svg>
