<svg width="114" height="353" viewBox="0 0 114 353" fill="none" xmlns="http://www.w3.org/2000/svg">
<g clip-path="url(#clip0_832_1294)">
<path d="M189.886 1.02141C214.996 -0.912819 239.832 19.1047 243.266 44.0551C245.051 56.9652 241.755 70.2644 244.193 83.0715C247.615 101.052 261.692 115.049 276.411 125.945C291.129 136.841 307.45 146.134 319.021 160.315C330.603 174.495 336.326 195.646 326.632 211.177C317.258 226.204 296.76 231.435 287.558 246.576C272.588 271.195 295.764 305.267 283.072 331.133C276.663 344.192 261.795 351.849 247.249 351.986C232.702 352.123 218.67 345.645 207.397 336.444C194.098 325.594 183.431 310.623 167.339 304.66C141.141 294.966 113.604 312.786 86.2158 318.257C60.4185 323.419 31.3822 316.163 14.2031 296.237C-2.976 276.311 -4.91023 243.44 12.967 224.133C22.6153 213.706 37.3223 206.999 41.9232 193.551C47.6343 176.864 34.8616 160.246 25.3278 145.413C17.4192 133.11 11.1816 119.204 10.8268 104.588C10.472 89.9614 16.9271 74.5792 29.551 67.1856C60.3269 49.1367 101.827 83.8497 130.852 58.6705C153.273 39.2367 152.506 3.90558 189.886 1.02141Z" stroke="#FF5722" stroke-width="0.858384" stroke-miterlimit="10"/>
<path d="M188.616 10.3607C212.387 8.52948 235.907 27.4826 239.157 51.1053C240.84 63.3287 237.727 75.9183 240.038 88.0387C243.277 105.069 256.611 118.311 270.54 128.623C284.468 138.935 299.919 147.736 310.884 161.162C321.848 174.587 327.262 194.604 318.094 209.311C309.213 223.537 289.813 228.493 281.092 242.823C266.923 266.125 288.863 298.389 276.846 322.881C270.78 335.242 256.703 342.487 242.923 342.624C229.154 342.761 215.866 336.615 205.199 327.917C192.61 317.651 182.515 303.47 167.27 297.828C142.469 288.649 116.397 305.519 90.4736 310.704C66.0498 315.591 38.5586 308.724 22.2951 289.862C6.0201 271 4.20033 239.881 21.1277 221.603C30.2723 211.738 44.1896 205.374 48.5387 192.659C53.9408 176.864 41.8548 161.127 32.8246 147.084C25.3395 135.433 19.4338 122.271 19.0904 108.434C18.7471 94.5853 24.8702 80.0271 36.8189 73.0227C65.9582 55.9352 105.249 88.8056 132.718 64.9654C153.937 46.5502 153.216 13.1075 188.616 10.3721V10.3607Z" stroke="#FF5722" stroke-width="0.824049" stroke-linecap="round" stroke-linejoin="round"/>
<path d="M187.345 19.7C209.778 17.9718 231.97 35.8605 235.048 58.1442C236.639 69.6808 233.698 81.5609 235.872 93.006C238.928 109.075 251.518 121.573 264.657 131.313C277.807 141.053 292.388 149.35 302.735 162.02C313.081 174.69 318.197 193.586 309.533 207.469C301.155 220.894 282.843 225.575 274.614 239.103C261.246 261.1 281.951 291.544 270.608 314.652C264.886 326.326 251.598 333.159 238.596 333.285C225.595 333.411 213.062 327.619 202.991 319.402C191.111 309.708 181.577 296.329 167.202 291.007C143.796 282.343 119.189 298.263 94.7198 303.15C71.6693 307.762 45.7347 301.284 30.3753 283.476C15.016 265.679 13.2992 236.299 29.2766 219.051C37.9062 209.735 51.0338 203.738 55.1426 191.732C60.2471 176.819 48.8363 161.974 40.3097 148.721C33.2366 137.734 27.6743 125.304 27.3538 112.245C27.0334 99.1749 32.8017 85.4293 44.0751 78.8255C71.5778 62.6993 108.649 93.7156 134.583 71.2259C154.612 53.8522 153.925 22.2866 187.334 19.7114L187.345 19.7Z" stroke="#FF5722" stroke-width="0.789713" stroke-linecap="round" stroke-linejoin="round"/>
<path d="M186.075 29.0393C207.168 27.4141 228.044 44.2384 230.928 65.1944C232.427 76.0444 229.658 87.2148 231.706 97.9732C234.59 113.081 246.413 124.846 258.774 133.991C271.135 143.147 284.846 150.953 294.586 162.867C304.314 174.781 309.121 192.556 300.984 205.603C293.109 218.239 275.884 222.622 268.147 235.349C255.569 256.03 275.049 284.666 264.382 306.4C258.991 317.376 246.505 323.808 234.281 323.923C222.058 324.037 210.27 318.589 200.804 310.864C189.634 301.754 180.672 289.164 167.144 284.162C145.135 276.014 121.993 290.984 98.9772 295.585C77.3001 299.922 52.9106 293.822 38.4668 277.089C24.0231 260.345 22.4093 232.728 37.4368 216.51C45.5514 207.755 57.9007 202.112 61.7577 190.816C66.5532 176.796 55.8291 162.833 47.8175 150.369C41.1679 140.034 35.926 128.349 35.6285 116.068C35.3309 103.776 40.7559 90.8544 51.354 84.6397C77.22 69.4749 112.082 98.6371 136.471 77.4865C155.31 61.1429 154.669 31.4542 186.075 29.0393Z" stroke="#FF5722" stroke-width="0.755378" stroke-linecap="round" stroke-linejoin="round"/>
<path d="M184.804 38.3786C204.57 36.8564 224.107 52.6163 226.819 72.2447C228.215 82.408 225.629 92.8688 227.552 102.952C230.253 117.11 241.331 128.12 252.902 136.692C264.474 145.265 277.326 152.578 286.437 163.737C295.547 174.896 300.056 191.537 292.422 203.761C285.04 215.595 268.914 219.704 261.669 231.618C249.892 250.995 268.136 277.81 258.144 298.16C253.097 308.438 241.4 314.458 229.944 314.572C218.498 314.687 207.454 309.582 198.584 302.349C188.123 293.811 179.722 282.022 167.053 277.341C146.44 269.707 124.763 283.728 103.212 288.042C82.9082 292.105 60.0637 286.394 46.5356 270.714C33.0074 255.035 31.4967 229.169 45.5627 213.97C53.1623 205.763 64.7333 200.487 68.35 189.901C72.8365 176.773 62.7991 163.691 55.2911 152.017C49.0649 142.335 44.155 131.393 43.8803 119.891C43.5942 108.388 48.6873 96.2794 58.6102 90.4539C82.8395 76.2505 115.492 103.57 138.325 83.7585C155.962 68.4564 155.367 40.6447 184.781 38.3786H184.804Z" stroke="#FF5722" stroke-width="0.709597" stroke-linecap="round" stroke-linejoin="round"/>
<path d="M183.534 47.7292C201.96 46.31 220.181 60.9941 222.71 79.3063C224.015 88.7828 221.6 98.5341 223.386 107.931C225.904 121.127 236.227 131.393 247.031 139.393C257.824 147.382 269.807 154.203 278.299 164.618C286.792 175.022 290.992 190.541 283.885 201.941C277.006 212.974 261.967 216.808 255.215 227.91C244.239 245.97 261.235 270.978 251.93 289.954C247.226 299.533 236.319 305.153 225.64 305.256C214.962 305.359 204.673 300.598 196.398 293.856C186.635 285.902 178.818 274.915 167.007 270.543C147.791 263.424 127.579 276.506 107.481 280.523C88.5507 284.311 67.2513 278.989 54.6388 264.362C42.0263 249.747 40.6185 225.621 53.7346 211.463C60.8192 203.818 71.6005 198.885 74.9768 189.031C79.1657 176.784 69.8036 164.595 62.7992 153.711C56.9965 144.681 52.4184 134.483 52.1552 123.759C51.892 113.035 56.6302 101.739 65.8893 96.3137C88.4706 83.0717 118.926 108.537 140.214 90.0647C156.661 75.7926 156.1 49.8694 183.534 47.7521V47.7292Z" stroke="#FF5722" stroke-width="0.675262" stroke-linecap="round" stroke-linejoin="round"/>
<path d="M182.252 57.0685C199.339 55.7523 216.244 69.372 218.578 86.3565C219.792 95.1464 217.548 104.188 219.208 112.909C221.543 125.144 231.122 134.666 241.137 142.083C251.151 149.499 262.253 155.817 270.139 165.477C278.024 175.125 281.916 189.511 275.323 200.087C268.937 210.319 254.997 213.878 248.736 224.179C238.55 240.923 254.322 264.122 245.692 281.713C241.331 290.595 231.214 295.814 221.314 295.905C211.414 295.997 201.869 291.59 194.2 285.33C185.147 277.948 177.891 267.762 166.938 263.71C149.107 257.118 130.371 269.238 111.738 272.958C94.1815 276.471 74.4272 271.527 62.7303 257.976C51.0334 244.414 49.7287 222.05 61.8948 208.911C68.4643 201.815 78.4673 197.248 81.5919 188.104C85.4718 176.75 76.7849 165.442 70.2955 155.348C64.9163 146.981 60.6702 137.516 60.4298 127.57C60.1895 117.625 64.5844 107.152 73.1683 102.116C94.1128 89.8359 122.348 113.459 142.102 96.3252C157.359 83.0947 156.832 59.0485 182.275 57.0914L182.252 57.0685Z" stroke="#FF5722" stroke-width="0.640927" stroke-linecap="round" stroke-linejoin="round"/>
<path d="M180.982 66.4078C196.73 65.1946 212.307 77.7499 214.47 93.3954C215.592 101.499 213.52 109.831 215.054 117.865C217.205 129.15 226.03 137.917 235.266 144.761C244.491 151.594 254.734 157.431 261.99 166.324C269.258 175.217 272.84 188.481 266.763 198.221C260.88 207.652 248.027 210.925 242.247 220.425C232.862 235.864 247.398 257.244 239.432 273.461C235.415 281.656 226.087 286.452 216.965 286.543C207.843 286.635 199.042 282.56 191.969 276.792C183.625 269.994 176.942 260.597 166.847 256.855C150.412 250.777 133.141 261.948 115.962 265.381C99.7785 268.62 81.5694 264.065 70.788 251.567C60.0067 239.069 58.805 218.456 70.0098 206.347C76.0642 199.812 85.289 195.6 88.1732 187.165C91.7555 176.693 83.7439 166.278 77.7581 156.973C72.7909 149.259 68.8882 140.538 68.6593 131.359C68.4304 122.191 72.4819 112.532 80.402 107.896C99.7099 96.5771 125.736 118.346 143.945 102.563C158.011 90.3624 157.531 68.2047 180.97 66.3963L180.982 66.4078Z" stroke="#FF5722" stroke-width="0.606591" stroke-linecap="round" stroke-linejoin="round"/>
<path d="M179.711 75.7471C194.12 74.6369 208.381 86.1278 210.35 100.446C211.368 107.862 209.48 115.485 210.876 122.844C212.845 133.167 220.925 141.202 229.371 147.451C237.818 153.7 247.18 159.045 253.83 167.182C260.479 175.32 263.764 187.463 258.202 196.379C252.822 205.008 241.057 208.007 235.769 216.694C227.174 230.817 240.485 250.388 233.194 265.232C229.52 272.729 220.982 277.124 212.627 277.204C204.272 277.284 196.226 273.565 189.76 268.288C182.126 262.062 176.003 253.467 166.767 250.045C151.728 244.482 135.922 254.703 120.208 257.85C105.398 260.815 88.7338 256.649 78.8681 245.215C69.0024 233.781 67.9037 214.908 78.1585 203.829C83.6979 197.844 92.133 193.998 94.7768 186.273C98.0501 176.693 90.7252 167.159 85.2545 158.644C80.7107 151.582 77.1284 143.605 76.9339 135.204C76.7278 126.815 80.4361 117.98 87.6808 113.733C105.352 103.376 129.169 123.302 145.822 108.846C158.686 97.6874 158.251 77.4066 179.711 75.7471Z" stroke="#FF5722" stroke-width="0.572256" stroke-linecap="round" stroke-linejoin="round"/>
<path d="M178.441 85.0864C191.511 84.0792 204.444 94.5057 206.241 107.496C207.168 114.214 205.451 121.138 206.722 127.811C208.507 137.173 215.832 144.464 223.5 150.14C231.169 155.817 239.661 160.658 245.692 168.041C251.724 175.423 254.7 186.433 249.652 194.525C244.765 202.353 234.099 205.077 229.303 212.963C221.509 225.781 233.584 243.533 226.968 256.992C223.626 263.79 215.889 267.773 208.313 267.853C200.736 267.922 193.434 264.546 187.563 259.762C180.638 254.108 175.088 246.314 166.698 243.212C153.056 238.165 138.715 247.447 124.454 250.297C111.018 252.986 95.8988 249.209 86.9487 238.829C77.9986 228.448 76.9914 211.337 86.3078 201.289C91.3322 195.864 98.9889 192.361 101.381 185.368C104.357 176.682 97.7071 168.029 92.7399 160.304C88.6197 153.894 85.3693 146.661 85.1861 139.039C85.003 131.428 88.3679 123.416 94.9374 119.559C110.961 110.163 132.569 128.234 147.688 115.13C159.362 105.001 158.961 86.6086 178.43 85.1092L178.441 85.0864Z" stroke="#FF5722" stroke-width="0.537921" stroke-linecap="round" stroke-linejoin="round"/>
<path d="M177.17 94.4257C188.913 93.5215 200.518 102.884 202.132 114.546C202.968 120.578 201.423 126.792 202.567 132.778C204.169 141.19 210.75 147.726 217.629 152.819C224.507 157.912 232.141 162.261 237.555 168.888C242.968 175.514 245.647 185.403 241.114 192.659C236.731 199.686 227.151 202.136 222.848 209.209C215.855 220.711 226.682 236.654 220.753 248.74C217.755 254.84 210.808 258.423 204.009 258.491C197.211 258.56 190.653 255.527 185.377 251.224C179.162 246.154 174.172 239.149 166.652 236.368C154.406 231.836 141.53 240.168 128.735 242.72C116.672 245.135 103.098 241.736 95.0631 232.431C87.0287 223.115 86.1245 207.744 94.4909 198.725C99.0003 193.849 105.879 190.713 108.03 184.43C110.697 176.625 104.734 168.865 100.271 161.929C96.5739 156.172 93.6554 149.683 93.4837 142.839C93.312 136.006 96.3336 128.807 102.239 125.35C116.626 116.915 136.025 133.144 149.599 121.367C160.083 112.28 159.717 95.7647 177.193 94.4142L177.17 94.4257Z" stroke="#FF5722" stroke-width="0.503585" stroke-linecap="round" stroke-linejoin="round"/>
<path d="M175.9 103.776C186.304 102.975 196.593 111.272 198.012 121.596C198.745 126.941 197.383 132.457 198.402 137.756C199.821 145.207 205.658 150.998 211.747 155.519C217.835 160.04 224.599 163.885 229.395 169.757C234.19 175.628 236.56 184.395 232.542 190.827C228.662 197.053 220.17 199.217 216.359 205.488C210.156 215.686 219.758 229.798 214.505 240.511C211.85 245.924 205.692 249.094 199.66 249.152C193.629 249.209 187.826 246.519 183.157 242.719C177.652 238.221 173.234 232.018 166.561 229.558C155.711 225.54 144.3 232.922 132.958 235.189C122.269 237.329 110.251 234.319 103.132 226.067C96.0135 217.815 95.2123 204.195 102.617 196.206C106.612 191.892 112.7 189.111 114.612 183.537C116.981 176.624 111.693 169.745 107.733 163.599C104.46 158.506 101.873 152.749 101.725 146.683C101.576 140.629 104.254 134.254 109.484 131.187C122.234 123.713 139.425 138.088 151.442 127.662C160.724 119.604 160.415 104.966 175.9 103.776Z" stroke="#FF5722" stroke-width="0.46925" stroke-linecap="round" stroke-linejoin="round"/>
<path d="M174.63 113.115C183.694 112.417 192.656 119.639 193.903 128.646C194.544 133.304 193.354 138.111 194.235 142.724C195.471 149.213 200.553 154.272 205.863 158.197C211.174 162.123 217.068 165.488 221.246 170.604C225.423 175.72 227.495 183.354 223.992 188.962C220.605 194.387 213.211 196.275 209.881 201.746C204.478 210.627 212.845 222.931 208.267 232.27C205.955 236.986 200.587 239.744 195.334 239.801C190.08 239.847 185.022 237.512 180.947 234.193C176.152 230.279 172.295 224.877 166.492 222.725C157.038 219.223 147.093 225.655 137.204 227.635C127.888 229.5 117.415 226.88 111.212 219.692C105.009 212.504 104.311 200.636 110.766 193.666C114.245 189.9 119.556 187.485 121.215 182.633C123.275 176.613 118.663 170.604 115.229 165.259C112.368 160.818 110.125 155.794 109.988 150.518C109.862 145.242 112.185 139.691 116.74 137.012C127.853 130.5 142.835 143.033 153.307 133.945C161.399 126.929 161.124 114.168 174.618 113.127L174.63 113.115Z" stroke="#FF5722" stroke-width="0.434915" stroke-linecap="round" stroke-linejoin="round"/>
<path d="M173.347 122.454C181.073 121.859 188.718 128.017 189.771 135.696C190.321 139.668 189.302 143.765 190.057 147.702C191.11 153.242 195.448 157.545 199.969 160.899C204.501 164.252 209.514 167.113 213.085 171.474C216.644 175.834 218.407 182.347 215.431 187.131C212.547 191.755 206.241 193.368 203.402 198.026C198.801 205.603 205.932 216.087 202.017 224.053C200.049 228.07 195.471 230.428 190.996 230.473C186.521 230.519 182.206 228.516 178.738 225.689C174.641 222.347 171.367 217.746 166.412 215.915C158.354 212.928 149.874 218.41 141.45 220.104C133.507 221.695 124.58 219.463 119.292 213.329C114.005 207.194 113.409 197.077 118.914 191.137C121.89 187.932 126.411 185.86 127.819 181.729C129.57 176.59 125.644 171.474 122.714 166.919C120.276 163.13 118.365 158.85 118.251 154.352C118.136 149.854 120.128 145.116 124.008 142.838C133.484 137.287 146.245 147.966 155.184 140.217C162.085 134.231 161.845 123.359 173.347 122.477V122.454Z" stroke="#FF5722" stroke-width="0.389134" stroke-linecap="round" stroke-linejoin="round"/>
</g>
<defs>
<clipPath id="clip0_832_1294">
<rect width="332" height="351.949" fill="white" transform="translate(0 0.460938)"/>
</clipPath>
</defs>
</svg>
